<svg id="Layer_1" data-name="Layer 1" xmlns="http://www.w3.org/2000/svg" viewBox="0 0 832 845"><defs><style>.cls-1{fill:#262254;}.cls-2{fill:#ffc077;}.cls-3{fill:#407bff;}.cls-4{fill:#fcf0ea;}.cls-5{fill:#99a4ce;}.cls-6{fill:#fad4c8;}.cls-7{fill:#7487b7;}.cls-8{fill:#ff5b50;}.cls-9{fill:#fc5c52;}.cls-10,.cls-11{fill:none;stroke:#262254;stroke-linecap:round;stroke-linejoin:round;}.cls-11{stroke-width:2px;}</style></defs><title>assetweb</title><path class="cls-1" d="M795.26,401.77q.53-2.46,1.1-5.28c1.95-9.64,4.17-22.4,5.86-37.49,2.48-22.23,1.74-27.66-.79-32.35-6.33-11.77-21.43-15.82-32.22-17.24a94.49,94.49,0,0,0-9.78-.76,14.55,14.55,0,0,1-3.26-9.91,14.74,14.74,0,0,1,5.48-10.37,115.58,115.58,0,0,1,20.74-1.57,120.68,120.68,0,0,1,22.44,2.55c3.41.71,5.73,1.34,9.39,2.35,22.69,6.21,28.09,11.45,30.84,14.59a19.06,19.06,0,0,1,1.24,1.58c5.28,7.31,6.07,15.39,5,37-.76,14.86-2.32,34.39-5.74,57.39a88,88,0,0,1-19.9,3.3c-.91,0-1.84.08-2.79.1-1.58,0-3.13,0-4.63-.05A88.54,88.54,0,0,1,795.26,401.77Z" transform="translate(-126 -165)"/><path class="cls-2" d="M895.5,623.49l36,2.33,26,1.68-5,56-29.56-1.88,1.56-10.12a26.91,26.91,0,0,0-28.34-1.9c.14,3.69.26,7.39.39,11.08l-25.69-1.5q-.17-4.66-.35-9.33l12-1.35-3.78-46.09Z" transform="translate(-126 -165)"/><path class="cls-3" d="M721.44,668.92,702.5,667.5l23-188-65-27.21-21-8.79-88.7-97.57,2.73-2.88,20.81-21.94,2.2-2.32q41.91,36.32,83.85,72.62L675.5,404.5,768,417.28h0a88.94,88.94,0,0,0,62.63,3.9h0l63.85,7.33,48,116q-5.5,40.5-11,81l0,.32-36-2.33-3-71-25-67,11.22,136.91,3.78,46.09-12,1.35-50,5.65-.66-2.62L815.5,655.5l-5.21,17.38-.79,2.62Z" transform="translate(-126 -165)"/><path class="cls-4" d="M924.5,671.5l-1.56,10.12c-.14,1-.29,1.92-.44,2.88a56.27,56.27,0,0,1-25.85-1c0-.94-.06-1.87-.1-2.81-.13-3.69-.25-7.39-.39-11.08a26.91,26.91,0,0,1,28.34,1.9Z" transform="translate(-126 -165)"/><path class="cls-2" d="M887.5,999.5a72.41,72.41,0,0,1,0,10h-83v-5l40.24-27H882.5A74.06,74.06,0,0,1,887.5,999.5Z" transform="translate(-126 -165)"/><path class="cls-5" d="M870.86,679.18Q876.46,828.34,882,977.5h-37.3L807.4,780.83q4.23-41.83,8.47-83.67l-16.33,42.27q-46,119-92,238.07H677.5q22-154.29,43.94-308.58l88.06,6.58.79-2.62h9.55l.66,2.62,50-5.65Q870.69,674.52,870.86,679.18Z" transform="translate(-126 -165)"/><path class="cls-2" d="M818.2,409.54a67.7,67.7,0,0,0,7.51-1.87l6.11,13.14-1.17.36h0a88.94,88.94,0,0,1-62.63-3.9c-.8-.35-1.55-.71-2.27-1q4.32-6.72,8.65-13.44a68.62,68.62,0,0,0,7.16,3.33,65.71,65.71,0,0,0,13.31,3.7A66.55,66.55,0,0,0,818.2,409.54Z" transform="translate(-126 -165)"/><polygon class="cls-2" points="689.5 490.5 693.84 507.88 684.29 507.88 689.5 490.5"/><path class="cls-6" d="M818.2,405.65v3.89a66.55,66.55,0,0,1-23.34.27,65.71,65.71,0,0,1-13.31-3.7l1.8-11.9a63.89,63.89,0,0,0,13,2.28q-.57,2.82-1.1,5.28A88.54,88.54,0,0,0,818.2,405.65Z" transform="translate(-126 -165)"/><path class="cls-7" d="M815.87,697.16q-4.25,41.83-8.47,83.67l-7.86-41.4Z" transform="translate(-126 -165)"/><path class="cls-4" d="M801.43,326.65c2.53,4.69,3.27,10.12.79,32.35-1.69,15.09-3.91,27.85-5.86,37.49a63.89,63.89,0,0,1-13-2.28,39,39,0,0,1-10.62-4.78,8.35,8.35,0,0,0,1.94-9.2c-1.76-3.77-6.9-5.68-11.47-3.54-1.17-5.49-.15-13.06,1.49-28.83,1.62-15.58,3.24-28.71,4.52-38.45C780,310.83,795.1,314.88,801.43,326.65Zm-15.08,14.78a5.51,5.51,0,1,0-5.51,5.51A5.51,5.51,0,0,0,786.35,341.43Z" transform="translate(-126 -165)"/><circle class="cls-1" cx="654.84" cy="176.43" r="5.51"/><path class="cls-8" d="M774.67,380.23a8.35,8.35,0,0,1-1.94,9.2,23.16,23.16,0,0,1-7.47-7.52,16.51,16.51,0,0,1-2.06-5.22C767.77,374.55,772.91,376.46,774.67,380.23Z" transform="translate(-126 -165)"/><path class="cls-2" d="M712.5,999.5a72.41,72.41,0,0,1,0,10h-73v-5l38-27h30A74.06,74.06,0,0,1,712.5,999.5Z" transform="translate(-126 -165)"/><path class="cls-3" d="M660.5,196.41v33.46h-534V196.41a30.91,30.91,0,0,1,30.91-30.91H629.59A30.91,30.91,0,0,1,660.5,196.41ZM253.5,199A11.5,11.5,0,1,0,242,210.5,11.5,11.5,0,0,0,253.5,199Zm-37,0A11.5,11.5,0,1,0,205,210.5,11.5,11.5,0,0,0,216.5,199Zm-36,0A11.5,11.5,0,1,0,169,210.5,11.5,11.5,0,0,0,180.5,199Z" transform="translate(-126 -165)"/><path class="cls-9" d="M588.43,704.53a7.18,7.18,0,1,1,0,14.35H513.61a7.18,7.18,0,0,1,0-14.35Z" transform="translate(-126 -165)"/><path class="cls-2" d="M575.91,673.88a7.18,7.18,0,0,1,0,14.35h-62.3a7.18,7.18,0,0,1,0-14.35Z" transform="translate(-126 -165)"/><path class="cls-4" d="M574.34,321.11l-20.81,21.94L540.46,327.8a41.69,41.69,0,0,1,7-22l-15-17a3.3,3.3,0,0,1,5-4l36.83,36.27Z" transform="translate(-126 -165)"/><path class="cls-9" d="M546.06,400.22a7.18,7.18,0,0,1,0,14.35H399.48a7.18,7.18,0,0,1,0-14.35Z" transform="translate(-126 -165)"/><path class="cls-3" d="M517.35,461.52a7.18,7.18,0,0,1,0,14.35H398.23a7.18,7.18,0,0,1,0-14.35Z" transform="translate(-126 -165)"/><path class="cls-2" d="M497.78,430.87a7.18,7.18,0,1,1,0,14.35h-98.3a7.18,7.18,0,0,1,0-14.35Z" transform="translate(-126 -165)"/><rect class="cls-3" x="250.63" y="507.88" width="114.89" height="94.33" rx="13.16"/><path class="cls-3" d="M321.83,291.17a7.18,7.18,0,0,1,0,14.35H164.67a7.18,7.18,0,0,1,0-14.35Z" transform="translate(-126 -165)"/><path class="cls-9" d="M295.22,321.82a7.18,7.18,0,0,1,0,14.35H163.42a7.18,7.18,0,0,1,0-14.35Z" transform="translate(-126 -165)"/><path class="cls-3" d="M300,421.05a49.5,49.5,0,0,1-73.4,58.53h0L253.5,438l46.49-17Z" transform="translate(-126 -165)"/><path class="cls-9" d="M300,421.05h0L253.5,438,219.64,402h0A49.5,49.5,0,0,1,300,421.05Z" transform="translate(-126 -165)"/><path class="cls-2" d="M282.17,260.52a7.18,7.18,0,1,1,0,14.35H164.67a7.18,7.18,0,0,1,0-14.35Z" transform="translate(-126 -165)"/><path class="cls-2" d="M219.64,402,253.5,438l-26.9,41.53h0a49.48,49.48,0,0,1-7-77.62Z" transform="translate(-126 -165)"/><path class="cls-10" d="M685.93,977.5h21.65q46-119,92-238.07l16.33-42.27" transform="translate(-126 -165)"/><path class="cls-10" d="M721.5,668.5l-.06.42q-22,154.29-43.94,308.58" transform="translate(-126 -165)"/><path class="cls-10" d="M854,977.5h28q-5.6-149.16-11.18-298.32-.17-4.66-.35-9.33c0-.12,0-.23,0-.35" transform="translate(-126 -165)"/><polyline class="cls-10" points="673.54 574.43 681.4 615.83 718.74 812.5"/><path class="cls-10" d="M931.5,625.5q5.5-40.5,11-81l-48-116-63.85-7.33" transform="translate(-126 -165)"/><path class="cls-10" d="M768,417.28,675.5,404.5l-15.11-13.09q-41.92-36.3-83.85-72.62l-2.2,2.32-20.81,21.94-2.73,2.88,88.7,97.57,21,8.79,65,27.21-23,188,18.94,1.42,88.06,6.58.79-2.62,5.21-17.38,4.34,17.38.66,2.62,50-5.65,12-1.35-3.78-46.09L867.5,485.5l25,67,3,71h0" transform="translate(-126 -165)"/><path class="cls-10" d="M896.55,680.68l-25.69-1.5" transform="translate(-126 -165)"/><path class="cls-10" d="M878.72,622.41l16.78,1.08,36,2.33,26,1.68-5,56-29.56-1.88" transform="translate(-126 -165)"/><path class="cls-10" d="M707.5,977.5a74.06,74.06,0,0,1,5,22,72.41,72.41,0,0,1,0,10h-73v-5l38-27h8.43" transform="translate(-126 -165)"/><path class="cls-10" d="M882.5,977.5a74.06,74.06,0,0,1,5,22,72.41,72.41,0,0,1,0,10h-83v-5l40.24-27H854" transform="translate(-126 -165)"/><path class="cls-10" d="M660.5,391.28V196.41a30.91,30.91,0,0,0-30.91-30.91H157.41a30.91,30.91,0,0,0-30.91,30.91V509.59a30.91,30.91,0,0,0,30.91,30.91H629.59a30.91,30.91,0,0,0,30.91-30.91v-57.3" transform="translate(-126 -165)"/><line class="cls-10" x1="0.5" y1="64.87" x2="534.5" y2="64.87"/><circle class="cls-10" cx="43" cy="34" r="11.5"/><circle class="cls-10" cx="79" cy="34" r="11.5"/><circle class="cls-10" cx="116" cy="34" r="11.5"/><path class="cls-10" d="M553.76,343.31c-.07-.09-.15-.17-.23-.26L540.46,327.8a41.69,41.69,0,0,1,7-22l-15-17a3.3,3.3,0,0,1,5-4l36.83,36.27" transform="translate(-126 -165)"/><path class="cls-10" d="M922.94,681.62c-.14,1-.29,1.92-.44,2.88a56.27,56.27,0,0,1-25.85-1c0-.94-.06-1.87-.1-2.81-.13-3.69-.25-7.39-.39-11.08a26.91,26.91,0,0,1,28.34,1.9Z" transform="translate(-126 -165)"/><path class="cls-10" d="M282.17,274.87H164.67a7.18,7.18,0,0,1,0-14.35h117.5a7.18,7.18,0,1,1,0,14.35Z" transform="translate(-126 -165)"/><path class="cls-10" d="M321.83,305.52H164.67a7.18,7.18,0,0,1,0-14.35H321.83a7.18,7.18,0,0,1,0,14.35Z" transform="translate(-126 -165)"/><path class="cls-10" d="M295.22,336.17H163.42a7.18,7.18,0,0,1,0-14.35h131.8a7.18,7.18,0,0,1,0,14.35Z" transform="translate(-126 -165)"/><path class="cls-10" d="M339.83,504.17H170.73a13.3,13.3,0,0,1-13.3-13.3V385.22a13.31,13.31,0,0,1,13.3-13.31h169.1a13.31,13.31,0,0,1,13.3,13.31V490.87A13.3,13.3,0,0,1,339.83,504.17Z" transform="translate(-126 -165)"/><path class="cls-10" d="M300,421.05a49.5,49.5,0,1,1-46.5-32.5A49.55,49.55,0,0,1,300,421.05Z" transform="translate(-126 -165)"/><line class="cls-10" x1="93.64" y1="236.97" x2="127.5" y2="273.04"/><polyline class="cls-10" points="100.6 314.57 127.5 273.04 173.99 256.05"/><path class="cls-10" d="M546.06,414.57H399.48a7.18,7.18,0,0,1,0-14.35H546.06a7.18,7.18,0,0,1,0,14.35Z" transform="translate(-126 -165)"/><path class="cls-10" d="M497.78,445.22h-98.3a7.18,7.18,0,0,1,0-14.35h98.3a7.18,7.18,0,1,1,0,14.35Z" transform="translate(-126 -165)"/><path class="cls-10" d="M517.35,475.87H398.23a7.18,7.18,0,0,1,0-14.35H517.35a7.18,7.18,0,0,1,0,14.35Z" transform="translate(-126 -165)"/><path class="cls-10" d="M769.23,309.26c0,.05,0,.1,0,.15-1.28,9.74-2.9,22.87-4.52,38.45-1.64,15.77-2.66,23.34-1.49,28.83a16.51,16.51,0,0,0,2.06,5.22,23.16,23.16,0,0,0,7.47,7.52,39,39,0,0,0,10.62,4.78,63.89,63.89,0,0,0,13,2.28" transform="translate(-126 -165)"/><path class="cls-10" d="M825.62,405.6a88,88,0,0,0,19.9-3.3c3.42-23,5-42.53,5.74-57.39,1.11-21.65.32-29.73-5-37a19.06,19.06,0,0,0-1.24-1.58c-2.75-3.14-8.15-8.38-30.84-14.59-3.66-1-6-1.64-9.39-2.35a120.68,120.68,0,0,0-22.44-2.55,115.58,115.58,0,0,0-20.74,1.57,14.74,14.74,0,0,0-5.48,10.37,14.55,14.55,0,0,0,3.26,9.91,94.49,94.49,0,0,1,9.78.76c10.79,1.42,25.89,5.47,32.22,17.24,2.53,4.69,3.27,10.12.79,32.35-1.69,15.09-3.91,27.85-5.86,37.49q-.57,2.82-1.1,5.28a88.54,88.54,0,0,0,22.94,3.88c1.5.06,3,.08,4.63.05C823.78,405.68,824.71,405.65,825.62,405.6Z" transform="translate(-126 -165)"/><circle class="cls-10" cx="654.84" cy="176.43" r="5.51"/><path class="cls-10" d="M763.2,376.69c4.57-2.14,9.71-.23,11.47,3.54a8.35,8.35,0,0,1-1.94,9.2" transform="translate(-126 -165)"/><path class="cls-10" d="M825.71,407.67l6.11,13.14-1.17.36h0a88.94,88.94,0,0,1-62.63-3.9c-.8-.35-1.55-.71-2.27-1q4.32-6.72,8.65-13.44a68.62,68.62,0,0,0,7.16,3.33,65.71,65.71,0,0,0,13.31,3.7,66.55,66.55,0,0,0,23.34-.27A67.7,67.7,0,0,0,825.71,407.67Z" transform="translate(-126 -165)"/><line class="cls-10" x1="657.35" y1="229.21" x2="655.55" y2="241.11"/><path class="cls-10" d="M818.2,405.65v3.91" transform="translate(-126 -165)"/><line class="cls-10" x1="684.29" y1="507.88" x2="693.84" y2="507.88"/><path class="cls-10" d="M616.44,806.11h-250a13.27,13.27,0,0,1-13.28-13.27V661a13.28,13.28,0,0,1,13.28-13.28H512.76a13.28,13.28,0,0,0,8.91-3.43l27.66-25c9.52-8.61,24.5-.05,21.91,12.52a13.24,13.24,0,0,0,13,15.95h32.19A13.29,13.29,0,0,1,629.72,661V792.84A13.28,13.28,0,0,1,616.44,806.11Z" transform="translate(-126 -165)"/><rect class="cls-10" x="250.63" y="507.88" width="114.89" height="94.33" rx="13.16"/><path class="cls-10" d="M575.91,688.23h-62.3a7.18,7.18,0,0,1,0-14.35h62.3a7.18,7.18,0,0,1,0,14.35Z" transform="translate(-126 -165)"/><path class="cls-10" d="M588.43,718.88H513.61a7.18,7.18,0,0,1,0-14.35h74.82a7.18,7.18,0,1,1,0,14.35Z" transform="translate(-126 -165)"/><path class="cls-11" d="M772.73,330.29a15.64,15.64,0,0,1,6.91-2,16.57,16.57,0,0,1,11.22,4.05" transform="translate(-126 -165)"/></svg>