<svg id="Layer_2" data-name="Layer 2" xmlns="http://www.w3.org/2000/svg" viewBox="0 0 787.87 923.3"><defs><style>.cls-1{fill:#fc5c52;}.cls-2{fill:#407bff;}.cls-3{fill:#fff;}.cls-4{fill:#ffc077;}.cls-5{fill:#fcf0ea;}.cls-6{fill:#99a4ce;}.cls-7{fill:#262254;}.cls-8{fill:#7487b7;}.cls-9{fill:#fad4c8;}.cls-10{fill:#e2413d;}.cls-11,.cls-12,.cls-13{fill:none;stroke:#262254;stroke-linecap:round;stroke-linejoin:round;}.cls-12,.cls-13{stroke-width:5px;}.cls-13{stroke-dasharray:37 37;}</style></defs><title>peoplethrow</title><path class="cls-1" d="M169.67,1319v37.79H159a10.56,10.56,0,0,1-10.56-10.57V1319Z" transform="translate(-133.11 -1200.75)"/><path class="cls-2" d="M169.67,1263.31V1319H142.61a9,9,0,0,1-9-9v-37.73a9,9,0,0,1,9-9Z" transform="translate(-133.11 -1200.75)"/><path class="cls-3" d="M344.4,1319.94a6.67,6.67,0,0,0-6.63,4.39h-.28v-4.07h-5.41v24h5.66v-14.6a5.09,5.09,0,0,1,1.6-3.89,4.19,4.19,0,0,1,2.81-1.06,3.83,3.83,0,0,1,4,4.08v15.47h5.55v-15a4.8,4.8,0,0,1,1.14-3.31,4.23,4.23,0,0,1,3.2-1.27c2.28,0,4.09,1.34,4.09,4.31v15.24h5.67v-16.11c0-5.36-3.09-8.21-7.5-8.21-3.48,0-6.14,1.72-7.2,4.39h-.25A6.43,6.43,0,0,0,344.4,1319.94Zm209.4,9.5v49.15a23.63,23.63,0,0,1-23.63,23.63H193.3a23.63,23.63,0,0,1-23.63-23.63V1252.75H452.58v76.69Zm-144.34,14.82V1329c0-5.8-3.28-9-8.27-9-3.68,0-6,1.68-7.14,4.39h-.28v-12.07h-5.53v32h5.66v-14.07a5.39,5.39,0,0,1,1.82-4.36,5.23,5.23,0,0,1,3.37-1.1c3,0,4.71,1.89,4.71,5.12v14.41Zm-35.12,4.81,10.31-38.31h-5l-10.31,38.31Zm-45.93-4.81-12.48-17.64,12.37-14.36h-7.07L308.74,1327h-.39v-14.7h-5.8v32h5.8v-9.53l3.55-4.19,9.54,13.72Zm-42.28-16c0-10.44-4.64-16.47-12.33-16.47s-12.31,6-12.32,16.47,4.61,16.58,12.32,16.58S286.13,1338.79,286.13,1328.29Zm-29.34,0c0-10.44-4.64-16.47-12.33-16.47s-12.31,6-12.33,16.47,4.61,16.58,12.33,16.58S256.79,1338.79,256.79,1328.29Zm-29.56,16v-4.85H213.29v-.22l5.51-5.61c6.22-6,7.94-8.87,7.94-12.48,0-5.36-4.36-9.28-10.8-9.28s-10.84,3.94-10.84,10h5.52a4.93,4.93,0,0,1,5.25-5.31c3,0,5.31,1.86,5.31,4.88,0,2.67-1.63,4.58-4.78,7.78l-11.11,10.89v4.19Z" transform="translate(-133.11 -1200.75)"/><path class="cls-3" d="M280.29,1328.29c0,7.69-2.49,11.69-6.49,11.69s-6.48-4-6.46-11.69,2.5-11.64,6.46-11.64S280.27,1320.66,280.29,1328.29Z" transform="translate(-133.11 -1200.75)"/><path class="cls-3" d="M250.94,1328.29c0,7.69-2.48,11.69-6.48,11.69s-6.48-4-6.47-11.69,2.5-11.64,6.47-11.64S250.93,1320.66,250.94,1328.29Z" transform="translate(-133.11 -1200.75)"/><path class="cls-4" d="M853.29,1830a35.55,35.55,0,1,1-35.55,35.55,40.66,40.66,0,0,1,1.59-10.57,35.78,35.78,0,0,1,3.71-8.12,20.6,20.6,0,0,0,18-2.58l13,11.15a4.55,4.55,0,0,0,5.28,0,4.77,4.77,0,0,0,1.76-4.1Q854,1841,847,1830.73l.3-.21A35.87,35.87,0,0,1,853.29,1830Z" transform="translate(-133.11 -1200.75)"/><path class="cls-5" d="M861.08,1851.35a4.77,4.77,0,0,1-1.76,4.1,4.55,4.55,0,0,1-5.28,0l-13-11.15a20.6,20.6,0,0,1-18,2.58l-5.32-6.81,24.17-16.82q2.55,3.74,5.11,7.48Q854.05,1841,861.08,1851.35Z" transform="translate(-133.11 -1200.75)"/><path class="cls-2" d="M588.23,1812.38q11.81-103.45,23.6-206.93l3.74,4.43,13.32-8,49.66,11.95,93.77,87.25,71.24,121-1.67,1.16-24.17,16.82-1.65,1.15L733.22,1742l-66-60.12q-2.5,70.52-5,141l-16.89,4-60.37,14.43Q586.57,1826.9,588.23,1812.38Z" transform="translate(-133.11 -1200.75)"/><path class="cls-4" d="M827.2,2123.55l-78-.28a84.54,84.54,0,0,1,11.29-27.54l50.57,2.63.28.31a81.81,81.81,0,0,1,15.86,24.88Z" transform="translate(-133.11 -1200.75)"/><path class="cls-6" d="M753.12,1953.92q29,72.22,57.94,144.44l-50.57-2.63-65.32-124.17-113-60.9,16.14-30.51-27.08,24.62-109.52,99.54-176.34,84-40.31-12.18L418,1941.57q35.24-62.1,70.45-124.21L548,1837.2l11.34-14.62q1.2-6.54,2.41-13.08l26.5,2.88q-1.65,14.5-3.31,29l71.61-1,.11-.09Z" transform="translate(-133.11 -1200.75)"/><path class="cls-2" d="M697,1236a32,32,0,1,1-32,32A32,32,0,0,1,697,1236Zm15.33,32A15.33,15.33,0,1,0,697,1283.41,15.33,15.33,0,0,0,712.33,1268.08Z" transform="translate(-133.11 -1200.75)"/><path class="cls-7" d="M666,1465.53a204.2,204.2,0,0,1-1.2,118.1,37,37,0,0,1-30.43-3.15l.27-1a213.36,213.36,0,0,0,7-57.88,209.06,209.06,0,0,0-1.69-23.16,113.84,113.84,0,0,0-39.26-10c-9.61-.61-17.51.21-23.7-1.2a15.55,15.55,0,0,1-8-4.24c-5-5.13-5.44-12.92-5-18.57a132.14,132.14,0,0,1,102,1.09Z" transform="translate(-133.11 -1200.75)"/><path class="cls-8" d="M656.64,1840.32l-.11.09-71.61,1L645.29,1827Z" transform="translate(-133.11 -1200.75)"/><path class="cls-5" d="M641.62,1521.58a213.36,213.36,0,0,1-7,57.88l-.41-.11c-.46.07-3.64.5-8.36.71-9.36.44-24.78,0-37.06-5.75a35.48,35.48,0,0,1-3.4-1.79c4.64-5.71,4.3-13.71-.24-18.37a13.66,13.66,0,0,0-14.72-2.8h0c-2-10-.55-22.3,1.12-36.82a171,171,0,0,1,5.43-27.28c6.19,1.41,14.09.59,23.7,1.2a113.84,113.84,0,0,1,39.26,10A209.06,209.06,0,0,1,641.62,1521.58Zm-26,.06a6.35,6.35,0,1,0-7.88,4.31A6.35,6.35,0,0,0,615.57,1521.64Zm-24-4.51a6.35,6.35,0,1,0-7.88,4.3A6.35,6.35,0,0,0,591.62,1517.13Z" transform="translate(-133.11 -1200.75)"/><path class="cls-4" d="M625.85,1590.67l2.73-1.17q1.49,5.4,3,10.79l-2.65,1.59-13.32,8-3.74-4.43h0l-.6-.7-4.82-5.72Z" transform="translate(-133.11 -1200.75)"/><path class="cls-9" d="M625.85,1580.07v10.6L606.41,1599l-2.55-.09-17-15.41,1.95-9.2h0c12.28,5.78,27.7,6.19,37.06,5.75Z" transform="translate(-133.11 -1200.75)"/><path class="cls-7" d="M611.27,1513.76a6.35,6.35,0,1,1-7.88,4.31A6.35,6.35,0,0,1,611.27,1513.76Z" transform="translate(-133.11 -1200.75)"/><path class="cls-1" d="M611.83,1605.44h0q-11.8,103.47-23.6,206.93l-26.5-2.88q18.93-102.57,37.84-205.17a19.8,19.8,0,0,0,11.66.41Z" transform="translate(-133.11 -1200.75)"/><path class="cls-9" d="M606.41,1599l4.82,5.72a19.8,19.8,0,0,1-11.66-.41l.57-3.1,3.72-2.3Z" transform="translate(-133.11 -1200.75)"/><path class="cls-4" d="M600.14,1601.23l-3.19,2h0l-1.08.67-4.09,2.53-13.69-13-1.6-1.52,7.82-10.69,2.54,2.3,17,15.41Z" transform="translate(-133.11 -1200.75)"/><path class="cls-9" d="M600.14,1601.23l-.57,3.1a19.62,19.62,0,0,1-2.62-1.13Z" transform="translate(-133.11 -1200.75)"/><path class="cls-10" d="M599.57,1604.33q-18.92,102.59-37.84,205.17l-7.89-.86q21-102.39,42-204.77l1.08-.67h0A19.62,19.62,0,0,0,599.57,1604.33Z" transform="translate(-133.11 -1200.75)"/><path class="cls-8" d="M598.33,1880.15l-16.14,30.51-10.94-5.89Z" transform="translate(-133.11 -1200.75)"/><path class="cls-2" d="M553.84,1808.64q-2.93,14.28-5.86,28.56l-59.52-19.84L472.4,1812q20.78-80,41.54-160l-121.31-28.9-126-52.14,2.95-5.47,13.9-25.73,1.74-3.23,125,37c48,14.19,89.31,14.09,114.62,16.37,21.6,1.95,39.85,3,53.2,3.53l13.69,13,4.09-2.53Q574.85,1706.26,553.84,1808.64Z" transform="translate(-133.11 -1200.75)"/><path class="cls-7" d="M587.32,1509.25a6.35,6.35,0,1,1-7.88,4.31A6.35,6.35,0,0,1,587.32,1509.25Z" transform="translate(-133.11 -1200.75)"/><path class="cls-1" d="M585.15,1554.15c4.54,4.66,4.88,12.66.24,18.37a30.79,30.79,0,0,1-10.81-10.24,31.92,31.92,0,0,1-4.15-10.93A13.66,13.66,0,0,1,585.15,1554.15Z" transform="translate(-133.11 -1200.75)"/><path class="cls-8" d="M561.73,1809.5q-1.2,6.54-2.41,13.08L548,1837.2q2.92-14.28,5.86-28.56Z" transform="translate(-133.11 -1200.75)"/><path class="cls-4" d="M553.8,1224.88v104.56H452.58v-76.69H169.67v-27.87a23.63,23.63,0,0,1,23.63-23.63H530.17A23.63,23.63,0,0,1,553.8,1224.88Z" transform="translate(-133.11 -1200.75)"/><path class="cls-4" d="M409.46,1329v15.28H403.8v-14.41c0-3.23-1.75-5.12-4.71-5.12a5.23,5.23,0,0,0-3.37,1.1l-1.67-1.5c1.11-2.71,3.46-4.39,7.14-4.39C406.18,1319.94,409.46,1323.18,409.46,1329Z" transform="translate(-133.11 -1200.75)"/><path class="cls-4" d="M395.72,1325.83a5.39,5.39,0,0,0-1.82,4.36v14.07h-5.66v-32h5.53v12.07h.28Z" transform="translate(-133.11 -1200.75)"/><polygon class="cls-4" points="251.54 110.01 241.23 148.32 236.27 148.32 246.58 110.01 251.54 110.01"/><path class="cls-4" d="M365.83,1328.15v16.11h-5.67V1329c0-3-1.81-4.31-4.09-4.31a4.23,4.23,0,0,0-3.2,1.27l-1.74-1.65c1.06-2.67,3.72-4.39,7.2-4.39C362.74,1319.94,365.83,1322.79,365.83,1328.15Z" transform="translate(-133.11 -1200.75)"/><path class="cls-4" d="M351.13,1324.33l1.74,1.65a4.8,4.8,0,0,0-1.14,3.31v15h-5.55v-15.47a3.83,3.83,0,0,0-4-4.08,4.19,4.19,0,0,0-2.81,1.06l-1.57-1.44a6.67,6.67,0,0,1,6.63-4.39,6.43,6.43,0,0,1,6.48,4.39Z" transform="translate(-133.11 -1200.75)"/><path class="cls-4" d="M339.34,1325.77a5.09,5.09,0,0,0-1.6,3.89v14.6h-5.66v-24h5.41v4.07h.28Z" transform="translate(-133.11 -1200.75)"/><polygon class="cls-4" points="182.82 125.87 195.3 143.51 188.33 143.51 178.79 129.79 175.24 133.98 175.24 143.51 169.44 143.51 169.44 111.51 175.24 111.51 175.24 126.21 175.63 126.21 188.12 111.51 195.19 111.51 182.82 125.87"/><path class="cls-4" d="M285.39,2088.28l10.91,32.33-73.48.42a80.08,80.08,0,0,1,10.5-29.81,79.15,79.15,0,0,1,11.76-15.12Z" transform="translate(-133.11 -1200.75)"/><path class="cls-5" d="M283.52,1539.81l-13.9,25.73-.9-.49c-20-6.29-33.12-15.71-32.4-23.88a8.87,8.87,0,0,1,2.12-4.81q-19.11-13.42-17.61-16.35,2.47-4.86,61.79,19.31Z" transform="translate(-133.11 -1200.75)"/><path class="cls-4" d="M273.8,1311.82c7.69,0,12.33,6,12.33,16.47s-4.61,16.59-12.33,16.58-12.32-6.1-12.32-16.58S266.12,1311.82,273.8,1311.82Zm0,28.16c4,0,6.49-4,6.49-11.69s-2.5-11.64-6.49-11.64-6.45,4-6.46,11.64S269.82,1340,273.8,1340Z" transform="translate(-133.11 -1200.75)"/><path class="cls-4" d="M244.46,1311.82c7.69,0,12.33,6,12.33,16.47s-4.61,16.59-12.33,16.58-12.33-6.1-12.33-16.58S236.77,1311.82,244.46,1311.82Zm0,28.16c4,0,6.48-4,6.48-11.69s-2.5-11.64-6.48-11.64-6.45,4-6.47,11.64S240.48,1340,244.46,1340Z" transform="translate(-133.11 -1200.75)"/><path class="cls-4" d="M227.23,1339.41v4.85H205.29v-4.19l11.11-10.89c3.15-3.2,4.78-5.11,4.78-7.78,0-3-2.27-4.88-5.31-4.88a4.93,4.93,0,0,0-5.25,5.31H205.1c0-6.07,4.5-10,10.84-10s10.8,3.92,10.8,9.28c0,3.61-1.72,6.52-7.94,12.48l-5.51,5.61v.22Z" transform="translate(-133.11 -1200.75)"/><path class="cls-11" d="M598.33,1880.15l-27.08,24.62-109.52,99.54-176.34,84-40.31-12.18L418,1941.57q35.24-62.1,70.45-124.21l0,0" transform="translate(-133.11 -1200.75)"/><path class="cls-11" d="M571.25,1904.77l10.94,5.89,113,60.9,65.32,124.17,50.57,2.63q-29-72.23-57.94-144.44l-96.48-113.6L645.29,1827v0" transform="translate(-133.11 -1200.75)"/><path class="cls-11" d="M285.39,2088.28l10.91,32.33-73.48.42a80.08,80.08,0,0,1,10.5-29.81,79.15,79.15,0,0,1,11.76-15.12" transform="translate(-133.11 -1200.75)"/><path class="cls-11" d="M760.49,2095.73a84.54,84.54,0,0,0-11.29,27.54l78,.28a81.81,81.81,0,0,0-15.86-24.88" transform="translate(-133.11 -1200.75)"/><path class="cls-11" d="M611.83,1605.45q-11.8,103.47-23.6,206.93-1.65,14.5-3.31,29L645.29,1827l16.89-4q2.51-70.53,5-141l66,60.12,82.85,99.21,1.65-1.15,24.17-16.82,1.67-1.16-71.24-121-93.77-87.25-49.66-11.95" transform="translate(-133.11 -1200.75)"/><path class="cls-11" d="M595.86,1603.87q-21,102.39-42,204.77-2.93,14.28-5.86,28.56l-59.52-19.84L472.4,1812q20.78-80,41.54-160l-121.31-28.9-126-52.14,2.95-5.47,13.9-25.73,1.74-3.23,125,37c48,14.19,89.31,14.09,114.62,16.37,21.6,1.95,39.85,3,53.2,3.53" transform="translate(-133.11 -1200.75)"/><path class="cls-11" d="M588.7,1812.43l-.47,0-26.5-2.88-7.89-.86h0" transform="translate(-133.11 -1200.75)"/><path class="cls-11" d="M282.62,1539.32q-59.31-24.16-61.79-19.31-1.5,2.91,17.61,16.35a8.87,8.87,0,0,0-2.12,4.81c-.72,8.17,12.4,17.59,32.4,23.88" transform="translate(-133.11 -1200.75)"/><path class="cls-11" d="M841.89,1823.25q2.55,3.74,5.11,7.48,7.05,10.3,14.08,20.62a4.77,4.77,0,0,1-1.76,4.1,4.55,4.55,0,0,1-5.28,0l-13-11.15a20.6,20.6,0,0,1-18,2.58l-5.32-6.81" transform="translate(-133.11 -1200.75)"/><path class="cls-11" d="M847.3,1830.52a35.55,35.55,0,1,1-29.56,35,40.66,40.66,0,0,1,1.59-10.57,35.78,35.78,0,0,1,3.71-8.12" transform="translate(-133.11 -1200.75)"/><path class="cls-11" d="M603.86,1598.93l-17-15.41-2.54-2.3-7.82,10.69,1.6,1.52,13.69,13,4.09-2.53,1.08-.67" transform="translate(-133.11 -1200.75)"/><polyline class="cls-11" points="463.84 402.45 467.03 400.48 470.75 398.18"/><path class="cls-11" d="M625.85,1590.67l2.73-1.17q1.49,5.4,3,10.79l-2.65,1.59-13.32,8-3.74-4.43h0l-.6-.7-4.82-5.72Z" transform="translate(-133.11 -1200.75)"/><path class="cls-11" d="M570.43,1551.35a31.92,31.92,0,0,0,4.15,10.93,30.79,30.79,0,0,0,10.81,10.24,35.48,35.48,0,0,0,3.4,1.79c12.28,5.78,27.7,6.19,37.06,5.75,4.72-.21,7.9-.64,8.36-.71" transform="translate(-133.11 -1200.75)"/><path class="cls-11" d="M577,1487.25a171,171,0,0,0-5.43,27.28c-1.67,14.52-3.09,26.78-1.12,36.82" transform="translate(-133.11 -1200.75)"/><path class="cls-11" d="M634.62,1579.46l-.27,1a37,37,0,0,0,30.43,3.15,204.2,204.2,0,0,0,1.2-118.1,132.14,132.14,0,0,0-102-1.09c-.39,5.65,0,13.44,5,18.57a15.55,15.55,0,0,0,8,4.24c6.19,1.41,14.09.59,23.7,1.2a113.84,113.84,0,0,1,39.26,10,209.06,209.06,0,0,1,1.69,23.16A213.36,213.36,0,0,1,634.62,1579.46Z" transform="translate(-133.11 -1200.75)"/><path class="cls-11" d="M603.84,1507.5a18.59,18.59,0,0,1,17.8,4.33" transform="translate(-133.11 -1200.75)"/><path class="cls-11" d="M578.43,1502a18.59,18.59,0,0,1,17.81,4.34" transform="translate(-133.11 -1200.75)"/><path class="cls-11" d="M591.62,1517.13a6.35,6.35,0,1,1-4.3-7.88A6.34,6.34,0,0,1,591.62,1517.13Z" transform="translate(-133.11 -1200.75)"/><path class="cls-11" d="M615.57,1521.64a6.35,6.35,0,1,1-4.3-7.88A6.35,6.35,0,0,1,615.57,1521.64Z" transform="translate(-133.11 -1200.75)"/><path class="cls-11" d="M625.85,1580.07v10.62" transform="translate(-133.11 -1200.75)"/><path class="cls-11" d="M588.79,1574.32l-1.95,9.2" transform="translate(-133.11 -1200.75)"/><path class="cls-11" d="M599.57,1604.33a19.8,19.8,0,0,0,11.66.41" transform="translate(-133.11 -1200.75)"/><path class="cls-11" d="M596.94,1603.2h0a19.62,19.62,0,0,0,2.62,1.13" transform="translate(-133.11 -1200.75)"/><path class="cls-11" d="M585.38,1572.53h0c4.64-5.71,4.3-13.71-.24-18.37a13.66,13.66,0,0,0-14.72-2.8h0" transform="translate(-133.11 -1200.75)"/><circle class="cls-11" cx="563.89" cy="67.33" r="32.04"/><circle class="cls-11" cx="563.89" cy="67.33" r="15.33"/><path class="cls-11" d="M553.8,1329.44v49.15a23.63,23.63,0,0,1-23.63,23.63H193.3a23.63,23.63,0,0,1-23.63-23.63V1224.88a23.63,23.63,0,0,1,23.63-23.63H530.17a23.63,23.63,0,0,1,23.63,23.63Z" transform="translate(-133.11 -1200.75)"/><polyline class="cls-11" points="36.56 52 319.47 52 319.47 128.69 420.69 128.69"/><path class="cls-11" d="M205.29,1340.07l11.11-10.89c3.15-3.2,4.78-5.11,4.78-7.78,0-3-2.27-4.88-5.31-4.88a4.93,4.93,0,0,0-5.25,5.31H205.1c0-6.07,4.5-10,10.84-10s10.8,3.92,10.8,9.28c0,3.61-1.72,6.52-7.94,12.48l-5.51,5.61v.22h13.94v4.85H205.29Z" transform="translate(-133.11 -1200.75)"/><path class="cls-11" d="M232.13,1328.29c0-10.46,4.64-16.47,12.33-16.47s12.33,6,12.33,16.47-4.61,16.59-12.33,16.58S232.13,1338.77,232.13,1328.29Z" transform="translate(-133.11 -1200.75)"/><path class="cls-11" d="M250.94,1328.29c0-7.63-2.5-11.64-6.48-11.64s-6.45,4-6.47,11.64,2.49,11.69,6.47,11.69S250.94,1336,250.94,1328.29Z" transform="translate(-133.11 -1200.75)"/><path class="cls-11" d="M261.48,1328.29c0-10.46,4.64-16.47,12.32-16.47s12.33,6,12.33,16.47-4.61,16.59-12.33,16.58S261.48,1338.77,261.48,1328.29Z" transform="translate(-133.11 -1200.75)"/><path class="cls-11" d="M280.29,1328.29c0-7.63-2.5-11.64-6.49-11.64s-6.45,4-6.46,11.64,2.48,11.69,6.46,11.69S280.29,1336,280.29,1328.29Z" transform="translate(-133.11 -1200.75)"/><polygon class="cls-11" points="169.44 111.51 175.24 111.51 175.24 126.21 175.63 126.21 188.12 111.51 195.19 111.51 182.82 125.87 195.3 143.51 188.33 143.51 178.79 129.79 175.24 133.98 175.24 143.51 169.44 143.51 169.44 111.51"/><path class="cls-11" d="M339.34,1325.77a5.09,5.09,0,0,0-1.6,3.89v14.6h-5.66v-24h5.41v4.07h.28a6.67,6.67,0,0,1,6.63-4.39,6.43,6.43,0,0,1,6.48,4.39h.25c1.06-2.67,3.72-4.39,7.2-4.39,4.41,0,7.5,2.85,7.5,8.21v16.11h-5.67V1329c0-3-1.81-4.31-4.09-4.31a4.23,4.23,0,0,0-3.2,1.27,4.8,4.8,0,0,0-1.14,3.31v15h-5.55v-15.47a3.83,3.83,0,0,0-4-4.08A4.19,4.19,0,0,0,339.34,1325.77Z" transform="translate(-133.11 -1200.75)"/><polygon class="cls-11" points="241.23 148.32 236.27 148.32 246.58 110.01 251.54 110.01 241.23 148.32"/><path class="cls-11" d="M395.72,1325.83a5.39,5.39,0,0,0-1.82,4.36v14.07h-5.66v-32h5.53v12.07h.28c1.11-2.71,3.46-4.39,7.14-4.39,5,0,8.27,3.24,8.27,9v15.28H403.8v-14.41c0-3.23-1.75-5.12-4.71-5.12A5.23,5.23,0,0,0,395.72,1325.83Z" transform="translate(-133.11 -1200.75)"/><path class="cls-11" d="M169.67,1263.31H142.61a9,9,0,0,0-9,9V1310a9,9,0,0,0,9,9h27.06" transform="translate(-133.11 -1200.75)"/><path class="cls-11" d="M148.48,1319v27.22A10.56,10.56,0,0,0,159,1356.83h10.63" transform="translate(-133.11 -1200.75)"/><path class="cls-12" d="M902.13,1766.6c1.41-5.1,3.12-11.62,4.9-19.39" transform="translate(-133.11 -1200.75)"/><path class="cls-13" d="M913.77,1710.84c8.09-56.18,9.71-141-28.07-232.29a438.67,438.67,0,0,0-107.18-153.5" transform="translate(-133.11 -1200.75)"/><path class="cls-12" d="M764.7,1312.75c-5.67-4.84-10.89-9-15.5-12.64" transform="translate(-133.11 -1200.75)"/></svg>