<svg id="Layer_1" data-name="Layer 1" xmlns="http://www.w3.org/2000/svg" viewBox="0 0 938.56 861.61"><defs><style>.cls-1{fill:#ffc077;}.cls-2{fill:#fc5c52;}.cls-3{fill:#407bff;}.cls-4{fill:#c5cbe2;}.cls-5{fill:#e6eafd;}.cls-6{fill:#3472e0;}.cls-7{fill:#262254;}.cls-8{fill:#fad4c8;}.cls-9{fill:#fcf0ea;}.cls-10{fill:#ff5b50;}.cls-11{fill:#99a4ce;}.cls-12{fill:#7487b7;}.cls-13{fill:#e89c52;}.cls-14,.cls-15,.cls-16,.cls-17{fill:none;stroke-linecap:round;stroke-linejoin:round;}.cls-14,.cls-15{stroke:#262254;}.cls-15{stroke-width:2px;}.cls-16{stroke:#ffc077;}.cls-16,.cls-17{stroke-width:4px;}.cls-17{stroke:#fc5c52;}</style></defs><title>assetweb2</title><path class="cls-1" d="M995.23,148.77a13.29,13.29,0,0,1,13.25,13.31L1008.2,294a13.29,13.29,0,0,1-13.31,13.25l-146.35-.31a13.3,13.3,0,0,0-8.92,3.41l-27.71,25c-9.54,8.6-24.51,0-21.89-12.57a13.46,13.46,0,0,0,.28-2.73,13.28,13.28,0,0,0-13.25-13.25l-32.19-.07a13.26,13.26,0,0,1-13.25-13.3l.28-131.88a13.27,13.27,0,0,1,13.31-13.24ZM974,278.83v-61.4a3.26,3.26,0,0,0-3.26-3.26h-13a3.26,3.26,0,0,0-3.26,3.26v61.4a3.26,3.26,0,0,0,3.26,3.26h13A3.26,3.26,0,0,0,974,278.83Zm0-72.38V174.94a3.26,3.26,0,0,0-3.26-3.26h-13a3.26,3.26,0,0,0-3.26,3.26v31.51a3.26,3.26,0,0,0,3.26,3.26h13A3.26,3.26,0,0,0,974,206.45Zm-37.7,72.38V217.76a3.26,3.26,0,0,0-3.26-3.26H920a3.26,3.26,0,0,0-3.26,3.26v61.07a3.26,3.26,0,0,0,3.26,3.26h13A3.26,3.26,0,0,0,936.32,278.83Zm0-72V183.55a3.26,3.26,0,0,0-3.26-3.26H920a3.26,3.26,0,0,0-3.26,3.26V206.8a3.26,3.26,0,0,0,3.26,3.26h13A3.26,3.26,0,0,0,936.32,206.8Zm-37.69,72V228.94a3.26,3.26,0,0,0-3.26-3.26h-13a3.26,3.26,0,0,0-3.26,3.26v49.89a3.26,3.26,0,0,0,3.26,3.26h13A3.26,3.26,0,0,0,898.63,278.83Zm0-60.84V204.94a3.26,3.26,0,0,0-3.26-3.26h-13a3.26,3.26,0,0,0-3.26,3.26V218a3.26,3.26,0,0,0,3.26,3.26h13A3.26,3.26,0,0,0,898.63,218Zm-37.51,60.84V228.94a3.26,3.26,0,0,0-3.26-3.26H844.81a3.26,3.26,0,0,0-3.26,3.26v49.89a3.26,3.26,0,0,0,3.26,3.26h13.05A3.26,3.26,0,0,0,861.12,278.83Zm0-60.84V192.68a3.26,3.26,0,0,0-3.26-3.26H844.81a3.26,3.26,0,0,0-3.26,3.26V218a3.26,3.26,0,0,0,3.26,3.26h13.05A3.26,3.26,0,0,0,861.12,218Zm-37.79,60.84V238.4a3.26,3.26,0,0,0-3.26-3.26H807a3.26,3.26,0,0,0-3.26,3.26v40.43a3.26,3.26,0,0,0,3.26,3.26h13.05A3.26,3.26,0,0,0,823.33,278.83Zm0-51.39v-24a3.26,3.26,0,0,0-3.26-3.26H807a3.26,3.26,0,0,0-3.26,3.26v24A3.26,3.26,0,0,0,807,230.7h13.05A3.26,3.26,0,0,0,823.33,227.44Zm-37.7,51.39V238.4a3.26,3.26,0,0,0-3.26-3.26h-13a3.26,3.26,0,0,0-3.26,3.26v40.43a3.26,3.26,0,0,0,3.26,3.26h13A3.26,3.26,0,0,0,785.63,278.83Zm0-51.39V212.57a3.26,3.26,0,0,0-3.26-3.26h-13a3.26,3.26,0,0,0-3.26,3.26v14.87a3.26,3.26,0,0,0,3.26,3.26h13A3.26,3.26,0,0,0,785.63,227.44Z" transform="translate(-70.42 -112.24)"/><rect class="cls-2" x="884.04" y="101.93" width="19.56" height="67.92" rx="3.26"/><rect class="cls-3" x="884.04" y="59.44" width="19.56" height="38.03" rx="3.26"/><rect class="cls-2" x="846.34" y="102.26" width="19.56" height="67.59" rx="3.26"/><rect class="cls-3" x="846.34" y="68.05" width="19.56" height="29.77" rx="3.26"/><path class="cls-4" d="M904.11,648c0,3.05,0,6.09,0,9.14l-36.9,19.94c0-2.59-.05-5.19-.08-7.78Z" transform="translate(-70.42 -112.24)"/><path class="cls-5" d="M903.71,840.91q.19,66,.4,131.92l-140.82.28V807.44q20.12-41,40.21-81.92h64.21q-.26-24.21-.52-48.42l36.9-19.94Q903.91,749,903.71,840.91Z" transform="translate(-70.42 -112.24)"/><rect class="cls-2" x="808.64" y="113.44" width="19.57" height="56.41" rx="3.26"/><rect class="cls-3" x="808.64" y="89.44" width="19.57" height="19.57" rx="3.26"/><path class="cls-4" d="M867.19,677.1q.27,24.21.52,48.42H862V679.9Z" transform="translate(-70.42 -112.24)"/><path class="cls-4" d="M867.11,669.32c0,2.59.06,5.19.08,7.78L862,679.9v-7.65Z" transform="translate(-70.42 -112.24)"/><path class="cls-6" d="M862,672.25v7.65l-56.14,30.34L801.74,707Z" transform="translate(-70.42 -112.24)"/><rect class="cls-2" x="771.13" y="113.44" width="19.57" height="56.41" rx="3.26"/><rect class="cls-3" x="771.13" y="77.18" width="19.57" height="31.83" rx="3.26"/><path class="cls-6" d="M842.33,575l17.4,40.88-8.35,7.29Z" transform="translate(-70.42 -112.24)"/><path class="cls-7" d="M748.91,440.56c-3,.82-5.44.92-8-.27-5.73-2.63-8.13-9.72-9.25-15.08a121.47,121.47,0,0,1,90.26-25.42,187.62,187.62,0,0,1,29.48,104.48,34.08,34.08,0,0,1-27.65,5.08c0-.32,0-.64,0-1a181.59,181.59,0,0,0-7.7-54.22c-4.52-14.84-8-19.07-12.13-21.52-10.93-6.52-27.69-1.34-38.35,2C758,437,753,439.43,748.91,440.56Z" transform="translate(-70.42 -112.24)"/><path class="cls-8" d="M816.7,523.58l14.62,2.88c-18.14,14.9-38.5,18-49.34,9.58-2.18-1.69-5.58-5.11-7.63-11.9l8.83-1.86c.25-2.55.51-5.11.76-7.66,11.51.39,23.85-2.1,31.72-4.09Q816.19,517.06,816.7,523.58Z" transform="translate(-70.42 -112.24)"/><rect class="cls-2" x="733.34" y="122.9" width="19.57" height="46.95" rx="3.26"/><rect class="cls-3" x="733.34" y="87.94" width="19.57" height="30.52" rx="3.26"/><path class="cls-9" d="M785,686q7.69,9.6,15.38,19.22l-.57.46-11,6.55a29.91,29.91,0,0,1-8.8-2.45,29.6,29.6,0,0,1-5.78-3.47l-11.4,3.9a3.33,3.33,0,0,1-2.89-2,3.41,3.41,0,0,1,.14-2.63q12.18-9.52,24.34-19.07Z" transform="translate(-70.42 -112.24)"/><path class="cls-7" d="M786.09,456.48a5.84,5.84,0,1,1-5.84,5.83A5.83,5.83,0,0,1,786.09,456.48Z" transform="translate(-70.42 -112.24)"/><rect class="cls-2" x="695.65" y="122.9" width="19.56" height="46.95" rx="3.26"/><rect class="cls-3" x="695.65" y="97.07" width="19.56" height="21.39" rx="3.26"/><path class="cls-10" d="M778.61,496.45c4.14,4.69,5.12,11.72,2.64,18-8.87-.67-17-3.26-21.77-9.39-1.91-2.43-3.24-5.88-4.33-10.81C763.05,489,773.18,490.28,778.61,496.45Z" transform="translate(-70.42 -112.24)"/><path class="cls-7" d="M763.8,458.69a5.84,5.84,0,1,1-5.84,5.84A5.83,5.83,0,0,1,763.8,458.69Z" transform="translate(-70.42 -112.24)"/><path class="cls-1" d="M739.21,649.51q11.09,38,22.18,76h-2.7l-1,2-110.6-.24v0l-.51-1.74-22.18-76H739.21Z" transform="translate(-70.42 -112.24)"/><path class="cls-11" d="M757.71,727.52,719.34,805.7h0l-21.21-5.36c-1,2.31-2.07,4.63-3.11,6.94Q667,869.86,639,932.42H600.27l17.36-98.82,17.24-98.17,1.44-8.17,10.8,0Z" transform="translate(-70.42 -112.24)"/><path class="cls-9" d="M778.61,496.45c-5.43-6.17-15.56-7.43-23.46-2.18-1.4-6.25-2.45-14.87-3.9-26.84-1.33-11-2-20.24-2.34-26.87,4.07-1.13,9.07-3.61,16.61-5.94,10.66-3.3,27.42-8.48,38.35-2,4.11,2.45,7.61,6.68,12.13,21.52a181.59,181.59,0,0,1,7.7,54.22h-.42c-1.15.36-3.88,1.19-7.62,2.13-7.87,2-20.21,4.48-31.72,4.09-.9,0-1.8-.08-2.69-.15C783.73,508.17,782.75,501.14,778.61,496.45Zm13.31-34.14a5.84,5.84,0,1,0-5.83,5.84A5.83,5.83,0,0,0,791.92,462.31Zm-22.29,2.22a5.84,5.84,0,1,0-5.83,5.83A5.83,5.83,0,0,0,769.63,464.53Z" transform="translate(-70.42 -112.24)"/><path class="cls-3" d="M851.38,623.13l8.35-7.29L842.33,575ZM785,686l-.61.49q-12.17,9.54-24.34,19.07a3.41,3.41,0,0,0-.14,2.63,3.33,3.33,0,0,0,2.89,2l11.4-3.9a29.6,29.6,0,0,0,5.78,3.47,29.91,29.91,0,0,0,8.8,2.45l11-6.55.57-.46Q792.69,695.65,785,686ZM607.86,578.76l1.43-3.72,105.07,27.13q8.34-37,16.69-74.07l43.13-4.52c.05.19.11.38.17.56,2,6.79,5.45,10.21,7.63,11.9,10.84,8.45,31.2,5.32,49.34-9.58l.72-.6L887.28,531q15.45,54.46,30.91,108.92L904.11,648l-37,21.3-5.1,2.93L801.74,707l4.13,3.29L862,679.9v45.62H761.39q-11.08-38-22.18-76H697.44L597.19,606.45l.85-2.2Q603,591.5,607.86,578.76Z" transform="translate(-70.42 -112.24)"/><path class="cls-4" d="M719.34,805.7l38.37-78.18,1-2H803.5q-20.1,41-40.21,81.92V973.11l-44.81.09V807.44l.85-1.74Z" transform="translate(-70.42 -112.24)"/><path class="cls-12" d="M719.33,805.7l-.85,1.74H695.36l-.35-.16c1-2.31,2.07-4.63,3.11-6.94Z" transform="translate(-70.42 -112.24)"/><path class="cls-5" d="M718.48,854.63V973.2l-73.13.15a95.58,95.58,0,0,0,0-12.79,94.19,94.19,0,0,0-3-17.69Z" transform="translate(-70.42 -112.24)"/><path class="cls-4" d="M718.48,807.44v47.19l-76.09,88.24A92.22,92.22,0,0,0,639,932.42Q667,869.84,695,807.28l.35.16Z" transform="translate(-70.42 -112.24)"/><path class="cls-1" d="M586.1,942.7l9.37-6.66,5.1-3.62H639a92.22,92.22,0,0,1,3.44,10.45,94.19,94.19,0,0,1,3,17.69,95.58,95.58,0,0,1,0,12.79H552V967Z" transform="translate(-70.42 -112.24)"/><path class="cls-4" d="M629.3,725.52h17.3l.51,1.74v0l-10.8,0-1.44,8.17-6.31-.06-4.14,0,4.81-9.81Z" transform="translate(-70.42 -112.24)"/><path class="cls-12" d="M634.87,735.43,617.63,833.6q-4.43,12.21-8.86,24.41,9.9-61.32,19.79-122.64Z" transform="translate(-70.42 -112.24)"/><path class="cls-11" d="M628.56,735.37Q618.68,796.69,608.77,858l-12.34,34-14.58,40.18c0,.07-.05.13-.07.2H543.17q14.76-98.77,29.5-197.56l51.75.47Z" transform="translate(-70.42 -112.24)"/><path class="cls-4" d="M608.77,858q4.44-12.21,8.86-24.41l-17.36,98.82h.3l-5.1,3.62-.21-.3q.62-21.84,1.21-43.68l0,0Z" transform="translate(-70.42 -112.24)"/><path class="cls-3" d="M601.36,276.69a16.22,16.22,0,0,1-2.73.23h-49V163.83h49c6.33,0,11.47,3.53,11.47,7.87v97.35C610.1,272.75,606.37,275.85,601.36,276.69Z" transform="translate(-70.42 -112.24)"/><path class="cls-2" d="M601.36,315.76v38.59c0,4.35-5.13,7.87-11.47,7.87h-40.3V323.63h40.3C596.23,323.63,601.36,320.11,601.36,315.76Z" transform="translate(-70.42 -112.24)"/><path class="cls-1" d="M601.36,315.27v.49c0,4.35-5.13,7.87-11.47,7.87h-40.3V276.92h49a16.22,16.22,0,0,0,2.73-.23Z" transform="translate(-70.42 -112.24)"/><path class="cls-13" d="M586.1,942.7,552,967v6.39H537.15l48.17-34.17A28.23,28.23,0,0,1,586.1,942.7Z" transform="translate(-70.42 -112.24)"/><path class="cls-1" d="M582.41,932.42a29.63,29.63,0,0,1,2.09,4.32c.33.84.6,1.66.82,2.44l-48.17,34.17H495.42V967L544,932.42h37.75c0-.07.05-.13.07-.2Z" transform="translate(-70.42 -112.24)"/><path class="cls-9" d="M579.48,584.4a22.14,22.14,0,0,1,.23,9.69l-2.62,1.31-2.89,1.45h0l-1.41.71-8-1.38a21.76,21.76,0,0,1-5.33-9.28,21.5,21.5,0,0,1-.54-8.9l1.39-.5,5.59-2,9.18.1A22.24,22.24,0,0,1,579.48,584.4Z" transform="translate(-70.42 -112.24)"/><path class="cls-1" d="M582.53,598.2l-.87,1.17-1.86-1.62-2.71-2.35,2.62-1.31A22.18,22.18,0,0,0,575,575.6l-9.18-.1-5.59,2L543.82,561l13.86-16.44,15.79,15.57-.51,0a3.92,3.92,0,0,0-2.45,3.43,4,4,0,0,0,3.1,3.88l7.19.55h0l1.7,1.61L595,581.43Z" transform="translate(-70.42 -112.24)"/><path class="cls-9" d="M585.51,569.76l-1.27-1.49-3.43-.26h0l-7.19-.55a4,4,0,0,1-3.1-3.88,3.92,3.92,0,0,1,2.45-3.43l.51,0h0l16,.76,7.71,10.78a16.41,16.41,0,0,1,2.73.76,17.34,17.34,0,0,1,7.9,6.29Q603,591.51,598,604.25l-.13,0-15.38-6L595,581.43l-12.44-11.81Z" transform="translate(-70.42 -112.24)"/><path class="cls-3" d="M139.63,112.74v335.7H103.21a32.29,32.29,0,0,1-32.29-32.29V145a32.29,32.29,0,0,1,32.29-32.29Zm-22.22,40.57a12.33,12.33,0,1,0-12.33,12.33A12.33,12.33,0,0,0,117.41,153.31Zm0,42.21a12.33,12.33,0,1,0-12.33,12.33A12.33,12.33,0,0,0,117.41,195.52Zm0,42.21a12.33,12.33,0,1,0-12.33,12.33A12.33,12.33,0,0,0,117.41,237.73Z" transform="translate(-70.42 -112.24)"/><path class="cls-14" d="M611.36,932.42H639Q667,869.84,695,807.28c1-2.31,2.07-4.63,3.11-6.94l21.21,5.36" transform="translate(-70.42 -112.24)"/><path class="cls-14" d="M757.71,727.52l-110.6-.24-10.8,0-1.44,8.17L617.63,833.6l-17.36,98.82h.3" transform="translate(-70.42 -112.24)"/><path class="cls-14" d="M554.82,932.42h27c0-.07.05-.13.07-.2L596.43,892l12.34-34" transform="translate(-70.42 -112.24)"/><path class="cls-14" d="M634.87,735.43l-6.31-.06-4.14,0-51.75-.47q-14.74,98.79-29.5,197.56H544" transform="translate(-70.42 -112.24)"/><path class="cls-14" d="M552,973.35H495.42V967L544,932.42h10.79" transform="translate(-70.42 -112.24)"/><path class="cls-14" d="M582.41,932.42a29.63,29.63,0,0,1,2.09,4.32c.33.84.6,1.66.82,2.44a28.23,28.23,0,0,1,.78,3.52l0,.17" transform="translate(-70.42 -112.24)"/><path class="cls-14" d="M639,932.42a92.22,92.22,0,0,1,3.44,10.45,94.19,94.19,0,0,1,3,17.69,95.58,95.58,0,0,1,0,12.79H552V967L586.1,942.7l9.37-6.66,5.1-3.62h10.79" transform="translate(-70.42 -112.24)"/><path class="cls-14" d="M645.35,973.35l73.13-.15,44.81-.09,140.82-.28q-.2-66-.4-131.92.19-91.87.38-183.75c0-3,0-6.09,0-9.14" transform="translate(-70.42 -112.24)"/><path class="cls-14" d="M758.69,725.52h109" transform="translate(-70.42 -112.24)"/><path class="cls-14" d="M803.5,725.52q-20.1,41-40.21,81.92V973.35" transform="translate(-70.42 -112.24)"/><path class="cls-14" d="M758.69,725.52l-1,2L719.34,805.7h0l-.85,1.74H695.36" transform="translate(-70.42 -112.24)"/><polyline class="cls-14" points="576.69 615.02 576.18 613.28 554 537.27 627.02 537.27 666.34 537.27 668.79 537.27"/><path class="cls-14" d="M761.39,725.52q-11.08-38-22.18-76" transform="translate(-70.42 -112.24)"/><path class="cls-14" d="M646.6,725.52H629.3" transform="translate(-70.42 -112.24)"/><path class="cls-14" d="M629.23,725.52l-4.81,9.81" transform="translate(-70.42 -112.24)"/><path class="cls-14" d="M596.47,892.06q-.6,21.84-1.21,43.68" transform="translate(-70.42 -112.24)"/><polyline class="cls-14" points="648.06 695.2 648.06 742.39 648.06 860.96 648.06 861.11"/><path class="cls-14" d="M842.32,574.93c-.41-.95-.82-1.9-1.22-2.85" transform="translate(-70.42 -112.24)"/><path class="cls-14" d="M697.44,649.51,597.19,606.45l.85-2.2q4.92-12.75,9.82-25.49l1.43-3.72,105.07,27.13q8.34-37,16.69-74.07l43.13-4.52c.05.19.11.38.17.56,2,6.79,5.45,10.21,7.63,11.9,10.84,8.45,31.2,5.32,49.34-9.58l.72-.6L887.28,531q15.45,54.46,30.91,108.92L904.11,648l-37,21.3-5.1,2.93L801.74,707l-1.36-1.7q-7.7-9.6-15.38-19.22l-2.33-2.91,68.71-60,8.35-7.29L842.33,575" transform="translate(-70.42 -112.24)"/><path class="cls-14" d="M867.71,725.52q-.26-24.21-.52-48.42c0-2.59-.05-5.19-.08-7.78" transform="translate(-70.42 -112.24)"/><path class="cls-14" d="M736.76,649.51q4.72-42.82,9.47-85.64" transform="translate(-70.42 -112.24)"/><polyline class="cls-14" points="791.59 560.01 791.59 567.66 791.59 613.28"/><path class="cls-14" d="M608,579c0-.07-.1-.14-.14-.21a17.34,17.34,0,0,0-7.9-6.29,16.41,16.41,0,0,0-2.73-.76" transform="translate(-70.42 -112.24)"/><path class="cls-14" d="M580.81,568l3.43.26,1.27,1.49,1.73,2" transform="translate(-70.42 -112.24)"/><path class="cls-14" d="M573.47,560.16l-.51,0a3.92,3.92,0,0,0-2.45,3.43,4,4,0,0,0,3.1,3.88l7.19.55" transform="translate(-70.42 -112.24)"/><polyline class="cls-14" points="526.81 459.47 519.1 448.69 503.06 447.93"/><path class="cls-14" d="M574.19,596.85l-1.41.71-8-1.38a21.76,21.76,0,0,1-5.33-9.28,21.5,21.5,0,0,1-.54-8.9l1.39-.5,5.59-2,9.18.1a22.18,22.18,0,0,1,4.68,18.49l-2.62,1.31-2.89,1.45" transform="translate(-70.42 -112.24)"/><path class="cls-14" d="M573.48,560.17h0l-15.79-15.57L543.82,561l16.44,16.47" transform="translate(-70.42 -112.24)"/><path class="cls-14" d="M577.09,595.4l2.71,2.35,1.86,1.62.87-1.17L595,581.43l-12.44-11.81-1.7-1.61h0" transform="translate(-70.42 -112.24)"/><line class="cls-14" x1="527.49" y1="491.96" x2="512.11" y2="485.96"/><path class="cls-14" d="M579.85,597.76h-.05l-5.6-.9h0" transform="translate(-70.42 -112.24)"/><line class="cls-14" x1="515.09" y1="457.52" x2="512.09" y2="457.38"/><path class="cls-14" d="M784.39,686.52q-12.17,9.54-24.34,19.07a3.41,3.41,0,0,0-.14,2.63,3.33,3.33,0,0,0,2.89,2l11.4-3.9a29.6,29.6,0,0,0,5.78,3.47,29.91,29.91,0,0,0,8.8,2.45l11-6.55" transform="translate(-70.42 -112.24)"/><line class="cls-14" x1="771.9" y1="462.69" x2="771.91" y2="462.72"/><path class="cls-14" d="M748.9,440.29c0,.09,0,.18,0,.27.35,6.63,1,15.88,2.34,26.87,1.45,12,2.5,20.59,3.9,26.84,1.09,4.93,2.42,8.38,4.33,10.81,4.8,6.13,12.9,8.72,21.77,9.39.89.07,1.79.12,2.69.15,11.51.39,23.85-2.1,31.72-4.09,3.74-.94,6.47-1.77,7.62-2.13" transform="translate(-70.42 -112.24)"/><path class="cls-14" d="M823.7,508.4c0,.31,0,.63,0,1a34.08,34.08,0,0,0,27.65-5.08,187.62,187.62,0,0,0-29.48-104.48,121.47,121.47,0,0,0-90.26,25.42c1.12,5.36,3.52,12.45,9.25,15.08,2.61,1.19,5.08,1.09,8,.27,4.07-1.13,9.07-3.61,16.61-5.94,10.66-3.3,27.42-8.48,38.35-2,4.11,2.45,7.61,6.68,12.13,21.52A181.59,181.59,0,0,1,823.7,508.4Z" transform="translate(-70.42 -112.24)"/><path class="cls-15" d="M777.92,452.88a17.1,17.1,0,0,1,16.82-.79" transform="translate(-70.42 -112.24)"/><path class="cls-15" d="M754.1,454.62a17.07,17.07,0,0,1,16.82-.78" transform="translate(-70.42 -112.24)"/><path class="cls-14" d="M769.63,464.53a5.84,5.84,0,1,1-5.83-5.84A5.83,5.83,0,0,1,769.63,464.53Z" transform="translate(-70.42 -112.24)"/><path class="cls-14" d="M791.92,462.31a5.84,5.84,0,1,1-5.83-5.83A5.83,5.83,0,0,1,791.92,462.31Z" transform="translate(-70.42 -112.24)"/><path class="cls-14" d="M755.15,494.27c7.9-5.25,18-4,23.46,2.18,4.14,4.69,5.12,11.72,2.64,18" transform="translate(-70.42 -112.24)"/><path class="cls-14" d="M815.66,510.53q.52,6.53,1,13.05l14.62,2.88" transform="translate(-70.42 -112.24)"/><path class="cls-14" d="M783.94,514.62c-.25,2.55-.51,5.11-.76,7.66l-8.83,1.86" transform="translate(-70.42 -112.24)"/><path class="cls-14" d="M549.59,362.22v53.93a32.29,32.29,0,0,1-32.29,32.29H103.21a32.29,32.29,0,0,1-32.29-32.29V145a32.29,32.29,0,0,1,32.29-32.29H517.3A32.29,32.29,0,0,1,549.59,145V362.22Z" transform="translate(-70.42 -112.24)"/><path class="cls-14" d="M549.59,163.83h49c6.33,0,11.47,3.53,11.47,7.87v97.35c0,3.7-3.73,6.8-8.74,7.64a16.22,16.22,0,0,1-2.73.23h-49" transform="translate(-70.42 -112.24)"/><path class="cls-14" d="M601.36,315.76c0,4.35-5.13,7.87-11.47,7.87h-40.3" transform="translate(-70.42 -112.24)"/><path class="cls-14" d="M601.36,276.68h0v38.58" transform="translate(-70.42 -112.24)"/><path class="cls-14" d="M601.36,315.27v39.08c0,4.35-5.13,7.87-11.47,7.87h-40.3" transform="translate(-70.42 -112.24)"/><line class="cls-14" x1="69.21" y1="0.5" x2="69.21" y2="336.2"/><path class="cls-14" d="M117.41,153.31A12.33,12.33,0,1,1,105.08,141,12.33,12.33,0,0,1,117.41,153.31Z" transform="translate(-70.42 -112.24)"/><path class="cls-14" d="M117.41,195.52a12.33,12.33,0,1,1-12.33-12.32A12.33,12.33,0,0,1,117.41,195.52Z" transform="translate(-70.42 -112.24)"/><path class="cls-14" d="M117.41,237.73a12.33,12.33,0,1,1-12.33-12.32A12.33,12.33,0,0,1,117.41,237.73Z" transform="translate(-70.42 -112.24)"/><path class="cls-14" d="M745.2,148.24l250,.53a13.29,13.29,0,0,1,13.25,13.31L1008.2,294a13.29,13.29,0,0,1-13.31,13.25l-146.35-.31a13.3,13.3,0,0,0-8.92,3.41l-27.71,25c-9.54,8.6-24.51,0-21.89-12.57a13.46,13.46,0,0,0,.28-2.73,13.28,13.28,0,0,0-13.25-13.25l-32.19-.07a13.26,13.26,0,0,1-13.25-13.3l.28-131.88A13.27,13.27,0,0,1,745.2,148.24Z" transform="translate(-70.42 -112.24)"/><rect class="cls-14" x="695.65" y="122.9" width="19.56" height="46.95" rx="3.26"/><rect class="cls-14" x="695.65" y="97.07" width="19.56" height="21.39" rx="3.26"/><rect class="cls-14" x="733.34" y="122.9" width="19.57" height="46.95" rx="3.26"/><rect class="cls-14" x="733.34" y="87.94" width="19.57" height="30.52" rx="3.26"/><rect class="cls-14" x="771.13" y="113.44" width="19.57" height="56.41" rx="3.26"/><rect class="cls-14" x="771.13" y="77.18" width="19.57" height="31.83" rx="3.26"/><rect class="cls-14" x="808.64" y="113.44" width="19.57" height="56.41" rx="3.26"/><rect class="cls-14" x="808.64" y="89.44" width="19.57" height="19.57" rx="3.26"/><rect class="cls-14" x="846.34" y="102.26" width="19.56" height="67.59" rx="3.26"/><rect class="cls-14" x="846.34" y="68.05" width="19.56" height="29.77" rx="3.26"/><rect class="cls-14" x="884.04" y="101.93" width="19.56" height="67.92" rx="3.26"/><rect class="cls-14" x="884.04" y="59.44" width="19.56" height="38.03" rx="3.26"/><polyline class="cls-16" points="107.16 192.21 150.99 192.21 193.51 140.54 237.34 140.54 286.39 117.64 331.16 117.64 375.17 58.77 419 58.77"/><polyline class="cls-17" points="125.99 282.4 167.65 282.4 208.06 232.55 249.72 232.55 296.35 173.01 338.01 173.01 380.73 140.38 422.39 140.38"/></svg>