<svg id="Layer_1" data-name="Layer 1" xmlns="http://www.w3.org/2000/svg" viewBox="0 0 1080 311.97"><defs><style>.cls-1{fill:#fff;}</style></defs><title>anoulogowhite</title><rect class="cls-1" x="1006.53" y="238.01" width="73.47" height="73.47"/><path class="cls-1" d="M963.29,632.14v64.41H677.22V385.05H963.29v64.42H963V632.14Zm-64.67,0V449.47h-157V632.14Z" transform="translate(0 -384.58)"/><polygon class="cls-1" points="677.22 0.48 677.22 64.89 624.76 64.89 624.76 311.48 560.89 311.48 560.48 311.79 403.36 106.37 403.36 247.53 403.36 311.48 403.36 311.94 338.95 311.94 338.95 247.53 338.95 0 403.36 0 403.36 0.82 403.59 0.64 560.35 205.61 560.35 64.89 560.35 0.48 560.35 0 624.76 0 624.76 0.48 677.22 0.48"/><path class="cls-1" d="M339,632.11v64.41H221.4V585.65h-157V696.52H0V385H285.82V632.11ZM221.4,521.24V449.45h-157v71.79Z" transform="translate(0 -384.58)"/></svg>