<svg id="Layer_1" data-name="Layer 1" xmlns="http://www.w3.org/2000/svg" viewBox="0 0 952.96 1061.62"><defs><style>.cls-1{fill:#fff;}.cls-2{fill:#407bff;}.cls-10,.cls-11,.cls-12,.cls-13,.cls-14,.cls-3,.cls-9{fill:none;}.cls-3{stroke:#fff;}.cls-10,.cls-12,.cls-14,.cls-3,.cls-9{stroke-linecap:round;stroke-linejoin:round;}.cls-10,.cls-11,.cls-13,.cls-3{stroke-width:5px;}.cls-4{fill:#262254;}.cls-5{fill:#ce452e;}.cls-6{fill:#e2caba;}.cls-7{fill:#ff5e3e;}.cls-8{fill:#ffe5d2;}.cls-13,.cls-14,.cls-9{stroke:#407bff;}.cls-9{stroke-width:2px;}.cls-10,.cls-11{stroke:#262254;}.cls-11,.cls-13{stroke-miterlimit:10;}.cls-12{stroke:#000;}.cls-12,.cls-14{stroke-width:0.5px;}</style></defs><title>asset1</title><circle class="cls-1" cx="74.97" cy="678.48" r="11.39"/><circle class="cls-1" cx="33.72" cy="678.28" r="11.39"/><path class="cls-1" d="M143.87,764.15a11,11,0,0,1-11-11v-2.44a11,11,0,0,1,11-11H430.73a11,11,0,0,1,11,11v2.44a11,11,0,0,1-11,11Z" transform="translate(-110.54 -9.49)"/><path class="cls-1" d="M143.87,807.48a11,11,0,0,1-11-11V794a11,11,0,0,1,11-11H269.64a11,11,0,0,1,11,11v2.44a11,11,0,0,1-11,11Z" transform="translate(-110.54 -9.49)"/><path class="cls-2" d="M113.28,666.24a7.24,7.24,0,0,1,7.24-7.24H452.43a34.72,34.72,0,0,1,34.72,34.73v20H113.28ZM196.9,688a11.39,11.39,0,1,0-11.39,11.39A11.39,11.39,0,0,0,196.9,688Zm-41.25-.2a11.39,11.39,0,1,0-11.39,11.39A11.39,11.39,0,0,0,155.65,687.77Z" transform="translate(-110.54 -9.49)"/><path class="cls-2" d="M143.87,739.71a11,11,0,0,0-11,11v2.44a11,11,0,0,0,11,11H430.73a11,11,0,0,0,11-11v-2.44a11,11,0,0,0-11-11Zm-11,56.77a11,11,0,0,0,11,11H269.64a11,11,0,0,0,11-11V794a11,11,0,0,0-11-11H143.87a11,11,0,0,0-11,11ZM148,844.29a34.73,34.73,0,0,1-34.72-34.73v-95.8H487.15V837.05a7.23,7.23,0,0,1-7.23,7.24Z" transform="translate(-110.54 -9.49)"/><path class="cls-3" d="M487.15,713.76V837.05a7.23,7.23,0,0,1-7.23,7.24H148a34.73,34.73,0,0,1-34.72-34.73V666.24a7.24,7.24,0,0,1,7.24-7.24H452.43a34.72,34.72,0,0,1,34.72,34.73Z" transform="translate(-110.54 -9.49)"/><line class="cls-3" x1="2.74" y1="704.26" x2="376.61" y2="704.26"/><circle class="cls-1" cx="162.33" cy="395.44" r="11.39"/><circle class="cls-1" cx="121.08" cy="395.24" r="11.39"/><path class="cls-1" d="M231.23,481.11a11,11,0,0,1-11-11v-2.44a11,11,0,0,1,11-11H518.09a11,11,0,0,1,11,11v2.44a11,11,0,0,1-11,11Z" transform="translate(-110.54 -9.49)"/><path class="cls-1" d="M231.23,524.44a11,11,0,0,1-11-11V511a11,11,0,0,1,11-11H357a11,11,0,0,1,11,11v2.44a11,11,0,0,1-11,11Z" transform="translate(-110.54 -9.49)"/><path class="cls-4" d="M200.64,383.2a7.24,7.24,0,0,1,7.24-7.24H539.79a34.73,34.73,0,0,1,34.73,34.73v20H200.64Zm83.62,21.73a11.39,11.39,0,1,0-11.39,11.39A11.39,11.39,0,0,0,284.26,404.93Zm-41.25-.2a11.39,11.39,0,1,0-11.39,11.39A11.39,11.39,0,0,0,243,404.73Z" transform="translate(-110.54 -9.49)"/><path class="cls-4" d="M574.52,554a7.24,7.24,0,0,1-7.24,7.24H235.36a34.73,34.73,0,0,1-34.72-34.73v-95.8H574.52ZM231.23,500a11,11,0,0,0-11,11v2.44a11,11,0,0,0,11,11H357a11,11,0,0,0,11-11V511a11,11,0,0,0-11-11Zm0-43.33a11,11,0,0,0-11,11v2.44a11,11,0,0,0,11,11H518.09a11,11,0,0,0,11-11v-2.44a11,11,0,0,0-11-11Z" transform="translate(-110.54 -9.49)"/><path class="cls-3" d="M574.52,430.72V554a7.24,7.24,0,0,1-7.24,7.24H235.36a34.73,34.73,0,0,1-34.72-34.73V383.2a7.24,7.24,0,0,1,7.24-7.24H539.79a34.73,34.73,0,0,1,34.73,34.73Z" transform="translate(-110.54 -9.49)"/><line class="cls-3" x1="90.1" y1="421.22" x2="463.98" y2="421.22"/><path class="cls-2" d="M799.92,283.66q6.3,100.66,12.61,201.33L806,481.65l-49.21-25.13c-.08-3.58-.17-7.18-.26-10.76q-2.65-112.29-5.34-224.6l2.85,1.52c3.39-4.49,6.8-9,10.19-13.46l.34.26L821.89,220l34,72.72,119,36.84c-.87,3.31-1.72,6.62-2.59,9.93q-2.65,10.19-5.3,20.37c-.32,1.2-.63,2.39-.94,3.59L829.63,331.89Q814.77,307.77,799.92,283.66Z" transform="translate(-110.54 -9.49)"/><path class="cls-1" d="M737.09,215.25l-4.86,2.59-3.51,1.87-5.56,3-10.29-13h0l-.6-.77q2.31-6,4.63-12.08c1.94,1.77,3.88,3.55,5.82,5.31Z" transform="translate(-110.54 -9.49)"/><path class="cls-2" d="M675.26,386.66a29.44,29.44,0,0,1-8.66,10.92,30.8,30.8,0,0,1-22.54,5.93q-30.85-42.7-61.69-85.42l77.11-97.29q26.7-5.56,53.38-11.16h0l10.29,13,5.56-3,.17.3q-3.1,112.86-6.18,225.74-.18,6.17-.35,12.33L673,483.3l-6.4,3.26,2.46-48.24c7.67-3.45,15.15-10,17.81-18.92,3.27-11-1.39-23.82-11.48-32.68Zm4.64-108.13-45.33,41.93L673.73,376Q676.83,327.26,679.9,278.53Z" transform="translate(-110.54 -9.49)"/><path class="cls-1" d="M716.89,196.79l6-2.12-.22,7.43C720.77,200.34,718.83,198.56,716.89,196.79Z" transform="translate(-110.54 -9.49)"/><path class="cls-4" d="M776,129.73l-33.42-4.12v6.81l-38.32,10.83q-1.82-15.06-3.61-30.14L748.23,88.4Q743.12,94.07,738,99.77l38.4,3.14q-.2,13.4-.41,26.82Z" transform="translate(-110.54 -9.49)"/><path class="cls-1" d="M751.17,221.16l-6.72-3.58-4.36-2.33L754,202.57l6-5.46q2.42,5.71,4.81,11.45c-.17.22-.33.44-.51.66-3.39,4.49-6.8,9-10.19,13.46Z" transform="translate(-110.54 -9.49)"/><path class="cls-5" d="M752.1,175.89c.45,1.5-.55,3.83-2.53,5.93a28,28,0,0,0-12.55-2.2,27.67,27.67,0,0,0-9.31,2.2c-2.2-2.34-3.28-5-2.68-6.63C727.09,169.61,750.42,170.29,752.1,175.89Z" transform="translate(-110.54 -9.49)"/><path class="cls-1" d="M675.39,386.72c10.09,8.86,14.75,21.65,11.48,32.68-2.66,8.89-10.14,15.47-17.81,18.92-7,3.15-14.16,3.7-17.95,1.07-4.52-3.16-5.89-11.19-3.16-16.84a14.86,14.86,0,0,1,7.87-7.06l-5.77-11.64v-.14a29.83,29.83,0,0,0,16.56-6.13,29.44,29.44,0,0,0,8.66-10.92Z" transform="translate(-110.54 -9.49)"/><path class="cls-6" d="M740.09,215.25l4.36,2.33a16.64,16.64,0,0,1-12.22.26l4.86-2.59L722.71,202.1l.22-7.43.16-4.8a23.44,23.44,0,0,0,5.49,3.1c8.91,3.49,17.84.5,20.43-.51a26.93,26.93,0,0,0,4.28-2.1l.29,5.35.37,6.86Z" transform="translate(-110.54 -9.49)"/><path class="cls-7" d="M737,179.62a28,28,0,0,1,12.55,2.2,14.67,14.67,0,0,1-21.86,0A27.67,27.67,0,0,1,737,179.62Z" transform="translate(-110.54 -9.49)"/><path class="cls-2" d="M673,483.3q-.36,4.13-.73,8.25l-5.67-5Z" transform="translate(-110.54 -9.49)"/><path class="cls-1" d="M722.13,812.82H628.69v-1.36c1.83-3.94,10.6-21.66,31.26-29.4,28-10.5,52.4,6.83,54.26,8.21A49.73,49.73,0,0,1,722.13,812.82Z" transform="translate(-110.54 -9.49)"/><path class="cls-1" d="M832,771.13a50,50,0,0,1,24.12,20.49c-1.94-1.42-26.32-18.69-54.25-8.2-20.66,7.75-29.44,25.46-31.26,29.4h-5.39a50.11,50.11,0,0,1,14.45-30.55,48.94,48.94,0,0,1,36.29-14.53,47.78,47.78,0,0,1,16,3.38Z" transform="translate(-110.54 -9.49)"/><path class="cls-1" d="M759.91,197.11l-6,5.46-.37-6.86h0Z" transform="translate(-110.54 -9.49)"/><path class="cls-1" d="M650.05,403.85l5.77,11.64a14.86,14.86,0,0,0-7.87,7.06c-2.73,5.65-1.36,13.68,3.16,16.84,3.79,2.63,10.95,2.08,17.95-1.07l-2.46,48.24,5.67,5Q660,633.31,647.62,775.11a50.17,50.17,0,0,0-23.44,37.71h98A50.46,50.46,0,0,0,705.33,780l35.16-288.24Q759.92,636.87,779.31,782l.31.3a50.11,50.11,0,0,0-14.45,30.55h98a50,50,0,0,0-7-21.19h0A50,50,0,0,0,832,771.13h0Q819.26,630.06,806.58,489l5.95-4.05q-6.31-100.67-12.61-201.33,14.87,24.1,29.71,48.23l136.48,31.57c.31-1.2.62-2.39.94-3.59l.12,0c12.4,4.27,40.64,13.11,45.78,4.93a7.42,7.42,0,0,0,.36-6.67c-2.39-5-10.13-1.11-20-6.49-5.86-3.21-7.21-6.81-15.72-10.35a43.36,43.36,0,0,0-5.15-1.79l-.13,0c.87-3.31,1.72-6.62,2.59-9.93l-119-36.84-34-72.72-57.34-10.53-.34-.26c.18-.22.34-.44.51-.66q-2.4-5.73-4.81-11.45l-6.3-1.4h0l-.29-5.35c15-9,23.79-32.43,22.71-60.63h0q.19-13.41.41-26.82L738,99.77q5.1-5.68,10.21-11.37l-47.58,24.71q1.8,15.08,3.61,30.14a78.51,78.51,0,0,0,2.56,16c2.22,8.26,6.2,23.08,16.27,30.62l-.16,4.8-6,2.12q-2.31,6-4.63,12.08l.6.77q-26.7,5.58-53.38,11.16l-77.11,97.29q30.84,42.71,61.69,85.42a29.88,29.88,0,0,0,6,.2Zm411-270.53V868.48a42.82,42.82,0,0,1-42.82,42.81h-543A121.31,121.31,0,0,1,353.9,790V54.82A42.83,42.83,0,0,1,396.72,12h543A121.33,121.33,0,0,1,1061,133.32Z" transform="translate(-110.54 -9.49)"/><path class="cls-1" d="M647.62,775.11A48.08,48.08,0,0,1,705.33,780a49.76,49.76,0,0,1,8.88,10.29c-1.86-1.38-26.28-18.71-54.26-8.21-20.66,7.74-29.43,25.46-31.26,29.4v1.36h-4.51A50.17,50.17,0,0,1,647.62,775.11Z" transform="translate(-110.54 -9.49)"/><path class="cls-2" d="M812.53,485,806.58,489l-.66-7.26.06-.13Z" transform="translate(-110.54 -9.49)"/><path class="cls-4" d="M672.27,491.55q.38-4.12.73-8.25l49.36-25.22q.17-6.16.35-12.33h33.8c.09,3.58.18,7.18.26,10.76L806,481.65l-.06.13.66,7.26q12.67,141,25.37,282.08a47.78,47.78,0,0,0-16-3.38,48.94,48.94,0,0,0-36.29,14.53l-.31-.3Q759.9,636.86,740.49,491.74L705.33,780a48.08,48.08,0,0,0-57.71-4.87Q660,633.35,672.27,491.55Z" transform="translate(-110.54 -9.49)"/><path class="cls-8" d="M776,129.73c1.08,28.2-7.7,51.66-22.71,60.63a26.93,26.93,0,0,1-4.28,2.1c-2.59,1-11.52,4-20.43.51a23.44,23.44,0,0,1-5.49-3.1C713,182.33,709,167.51,706.82,159.25a78.51,78.51,0,0,1-2.56-16l38.32-10.83v-6.81Zm-16.17,22.19c0-3.42-1.93-6.19-4.33-6.19s-4.33,2.77-4.33,6.19,2,6.19,4.33,6.19S759.83,155.34,759.83,151.92Zm-10.26,29.9c2-2.1,3-4.43,2.53-5.93-1.68-5.6-25-6.28-27.07-.7-.6,1.64.48,4.29,2.68,6.63a14.67,14.67,0,0,0,21.86,0Zm-19.36-29.9c0-3.42-2-6.19-4.33-6.19s-4.35,2.77-4.35,6.19,2,6.19,4.35,6.19S730.21,155.34,730.21,151.92Z" transform="translate(-110.54 -9.49)"/><ellipse class="cls-4" cx="644.96" cy="142.43" rx="4.33" ry="6.19"/><path class="cls-1" d="M751.17,221.16q2.67,112.29,5.34,224.6h-33.8q3.07-112.87,6.18-225.74l-.17-.3,3.51-1.87a16.64,16.64,0,0,0,12.22-.26Z" transform="translate(-110.54 -9.49)"/><path class="cls-1" d="M679.9,278.53q-3.09,48.72-6.17,97.42l-39.16-55.49Z" transform="translate(-110.54 -9.49)"/><path class="cls-1" d="M1013.31,358.17a7.42,7.42,0,0,1-.36,6.67c-5.14,8.18-33.38-.66-45.78-4.93l-.12,0q2.66-10.17,5.3-20.37l.13,0a43.36,43.36,0,0,1,5.15,1.79c8.51,3.54,9.86,7.14,15.72,10.35C1003.18,357.06,1010.92,353.13,1013.31,358.17Z" transform="translate(-110.54 -9.49)"/><path class="cls-1" d="M863.13,812.82H770.56c1.82-3.94,10.6-21.65,31.26-29.4,27.93-10.49,52.31,6.78,54.25,8.2h0A50,50,0,0,1,863.13,812.82Z" transform="translate(-110.54 -9.49)"/><path class="cls-4" d="M725.88,145.73c2.38,0,4.33,2.77,4.33,6.19s-2,6.19-4.33,6.19-4.35-2.77-4.35-6.19S723.48,145.73,725.88,145.73Z" transform="translate(-110.54 -9.49)"/><path class="cls-9" d="M628.69,812.82h-4.51a50.17,50.17,0,0,1,23.44-37.71A48.08,48.08,0,0,1,705.33,780a50.46,50.46,0,0,1,16.8,32.84Z" transform="translate(-110.54 -9.49)"/><path class="cls-9" d="M856.08,791.63a50,50,0,0,1,7,21.19h-98a50.11,50.11,0,0,1,14.45-30.55,48.94,48.94,0,0,1,36.29-14.53,47.78,47.78,0,0,1,16,3.38" transform="translate(-110.54 -9.49)"/><path class="cls-9" d="M832,771.13a50,50,0,0,1,24.12,20.49" transform="translate(-110.54 -9.49)"/><path class="cls-9" d="M682,276.56l-2.13,2-45.33,41.93L673.73,376c1.19,1.67,2.36,3.35,3.55,5a30.53,30.53,0,0,1-10.68,16.61,30.8,30.8,0,0,1-22.54,5.93q-30.85-42.7-61.69-85.42l77.11-97.29q26.7-5.56,53.38-11.16" transform="translate(-110.54 -9.49)"/><path class="cls-9" d="M675.39,386.72c10.09,8.86,14.75,21.65,11.48,32.68-2.66,8.89-10.14,15.47-17.81,18.92-7,3.15-14.16,3.7-17.95,1.07-4.52-3.16-5.89-11.19-3.16-16.84a14.86,14.86,0,0,1,7.87-7.06,22,22,0,0,1,15.27-.29" transform="translate(-110.54 -9.49)"/><line class="cls-9" x1="539.51" y1="394.36" x2="545.28" y2="406"/><path class="cls-9" d="M679.9,278.53q-3.09,48.72-6.17,97.42c0,.09,0,.18,0,.27" transform="translate(-110.54 -9.49)"/><path class="cls-9" d="M669.06,438.32l-2.46,48.24,6.4-3.26,49.36-25.22q.17-6.16.35-12.33,3.07-112.87,6.18-225.74" transform="translate(-110.54 -9.49)"/><polyline class="cls-9" points="556.06 477.06 561.73 482.06 561.86 482.17"/><path class="cls-9" d="M799.92,283.66q6.3,100.66,12.61,201.33L806,481.65l-49.21-25.13c-.08-3.58-.17-7.18-.26-10.76q-2.65-112.29-5.34-224.6v-.23" transform="translate(-110.54 -9.49)"/><line class="cls-9" x1="612.77" y1="436.26" x2="645.73" y2="436.26"/><line class="cls-9" x1="701.99" y1="475.5" x2="696.04" y2="479.54"/><path class="cls-9" d="M797.13,279.13c.93,1.5,1.85,3,2.79,4.52h0q14.87,24.1,29.71,48.23l136.48,31.57c.31-1.2.62-2.39.94-3.59q2.66-10.17,5.3-20.37c.87-3.31,1.72-6.62,2.59-9.93l-119-36.84-34-72.72-57.34-10.53" transform="translate(-110.54 -9.49)"/><path class="cls-9" d="M967.17,359.91c12.4,4.27,40.64,13.11,45.78,4.93a7.42,7.42,0,0,0,.36-6.67c-2.39-5-10.13-1.11-20-6.49-5.86-3.21-7.21-6.81-15.72-10.35a43.36,43.36,0,0,0-5.15-1.79" transform="translate(-110.54 -9.49)"/><path class="cls-9" d="M712.87,209.64l10.29,13,5.56-3,3.51-1.87,4.86-2.59L722.71,202.1c-1.94-1.76-3.88-3.54-5.82-5.31q-2.31,6-4.63,12.08l.6.77Z" transform="translate(-110.54 -9.49)"/><path class="cls-9" d="M764.21,209.22c-3.39,4.49-6.8,9-10.19,13.46l-2.85-1.52-6.72-3.58-4.36-2.33L754,202.57l6-5.46q2.42,5.71,4.81,11.45C764.55,208.78,764.39,209,764.21,209.22Z" transform="translate(-110.54 -9.49)"/><polyline class="cls-9" points="606.36 187.29 612.39 185.17 612.55 185.12"/><line class="cls-9" x1="649.37" y1="187.62" x2="643.07" y2="186.22"/><path class="cls-9" d="M628.69,811.46c1.83-3.94,10.6-21.66,31.26-29.4,28-10.5,52.4,6.83,54.26,8.21" transform="translate(-110.54 -9.49)"/><path class="cls-9" d="M770.56,812.82c1.82-3.94,10.6-21.65,31.26-29.4,27.93-10.49,52.31,6.78,54.25,8.2h0" transform="translate(-110.54 -9.49)"/><path class="cls-9" d="M732.23,217.84a16.64,16.64,0,0,0,12.22-.26" transform="translate(-110.54 -9.49)"/><path class="cls-10" d="M353.9,89.15V54.82A42.83,42.83,0,0,1,396.72,12h543A121.33,121.33,0,0,1,1061,133.32V868.48a42.82,42.82,0,0,1-42.82,42.81h-543A121.31,121.31,0,0,1,353.9,790Z" transform="translate(-110.54 -9.49)"/><circle class="cls-4" cx="74.73" cy="95.74" r="11.39"/><circle class="cls-4" cx="33.47" cy="95.55" r="11.39"/><rect class="cls-4" x="22.09" y="147.49" width="308.86" height="24.44" rx="11"/><rect class="cls-4" x="22.09" y="190.82" width="147.76" height="24.44" rx="11"/><path class="cls-1" d="M113,131V83.52a7.25,7.25,0,0,1,7.24-7.25H452.19A34.73,34.73,0,0,1,486.92,111v20Zm83.61-25.79a11.39,11.39,0,1,0-11.38,11.38A11.39,11.39,0,0,0,196.65,105.24Zm-41.25-.19A11.39,11.39,0,1,0,144,116.43,11.39,11.39,0,0,0,155.4,105.05Z" transform="translate(-110.54 -9.49)"/><path class="cls-1" d="M441.49,170.43V168a11,11,0,0,0-11-11H143.63a11,11,0,0,0-11,11v2.44a11,11,0,0,0,11,11H430.49A11,11,0,0,0,441.49,170.43Zm-172.1,54.33a11,11,0,0,0,11-11v-2.45a11,11,0,0,0-11-11H143.63a11,11,0,0,0-11,11v2.45a11,11,0,0,0,11,11Zm210.28,36.79H147.76A34.71,34.71,0,0,1,113,226.84V131H486.92V254.32A7.24,7.24,0,0,1,479.67,261.55Z" transform="translate(-110.54 -9.49)"/><path class="cls-11" d="M486.92,131V254.32a7.24,7.24,0,0,1-7.25,7.23H147.76A34.71,34.71,0,0,1,113,226.84V83.52a7.25,7.25,0,0,1,7.24-7.25H452.19A34.73,34.73,0,0,1,486.92,111Z" transform="translate(-110.54 -9.49)"/><line class="cls-11" x1="2.5" y1="121.54" x2="376.38" y2="121.54"/><circle class="cls-12" cx="74.73" cy="95.74" r="11.39"/><circle class="cls-2" cx="472.71" cy="902.8" r="11.39"/><circle class="cls-2" cx="431.46" cy="902.61" r="11.39"/><path class="cls-2" d="M530.61,975a11,11,0,0,1,11-11H828.47a11,11,0,0,1,11,11v2.45a11,11,0,0,1-11,11H541.61a11,11,0,0,1-11-11Z" transform="translate(-110.54 -9.49)"/><path class="cls-2" d="M541.61,1031.82a11,11,0,0,1-11-11v-2.45a11,11,0,0,1,11-11H667.38a11,11,0,0,1,11,11v2.45a11,11,0,0,1-11,11Z" transform="translate(-110.54 -9.49)"/><path class="cls-1" d="M511,890.56a7.22,7.22,0,0,1,7.23-7.23H850.17a34.71,34.71,0,0,1,34.72,34.72v20H511Zm83.61,21.73a11.39,11.39,0,1,0-11.39,11.39A11.39,11.39,0,0,0,594.64,912.29Zm-41.25-.18A11.39,11.39,0,1,0,542,923.49,11.39,11.39,0,0,0,553.39,912.11Z" transform="translate(-110.54 -9.49)"/><path class="cls-1" d="M530.61,1020.82a11,11,0,0,0,11,11H667.38a11,11,0,0,0,11-11v-2.45a11,11,0,0,0-11-11H541.61a11,11,0,0,0-11,11Zm11-56.77a11,11,0,0,0-11,11v2.45a11,11,0,0,0,11,11H828.47a11,11,0,0,0,11-11V975a11,11,0,0,0-11-11Zm4.13,104.56A34.71,34.71,0,0,1,511,1033.89V938.08H884.89v123.29a7.23,7.23,0,0,1-7.23,7.24Z" transform="translate(-110.54 -9.49)"/><path class="cls-13" d="M884.89,938.08v123.29a7.23,7.23,0,0,1-7.23,7.24H545.74A34.71,34.71,0,0,1,511,1033.89V890.56a7.22,7.22,0,0,1,7.23-7.23H850.17a34.71,34.71,0,0,1,34.72,34.72Z" transform="translate(-110.54 -9.49)"/><line class="cls-13" x1="400.49" y1="928.59" x2="774.35" y2="928.59"/><circle class="cls-14" cx="472.71" cy="902.8" r="11.39"/></svg>