<svg id="Layer_1" data-name="Layer 1" xmlns="http://www.w3.org/2000/svg" viewBox="0 0 1080 979.06"><defs><style>.cls-1{fill:#262254;}.cls-2{fill:#fff;}.cls-3{fill:#407bff;}.cls-4{fill:#ffe5d2;}.cls-5{fill:#e2caba;}.cls-6{fill:#ce452e;}.cls-7{fill:#ff5e3e;}.cls-8{fill:none;stroke:#407bff;stroke-linecap:round;stroke-linejoin:round;stroke-width:2px;}</style></defs><title>asset</title><path class="cls-1" d="M784.29,95.17A104.31,104.31,0,0,1,888.48,199.36V950.88a33.58,33.58,0,0,1-33.54,33.55H295.61a104.33,104.33,0,0,1-104.2-104.2V128.71A33.58,33.58,0,0,1,225,95.17H784.29m0-5H225a38.54,38.54,0,0,0-38.55,38.54V880.23a109.2,109.2,0,0,0,109.2,109.2H854.94a38.54,38.54,0,0,0,38.54-38.55V199.36A109.18,109.18,0,0,0,784.29,90.17Z" transform="translate(0 -90.17)"/><path class="cls-1" d="M360,310.83H84.5A84.5,84.5,0,0,1,0,226.33V139.4a13.85,13.85,0,0,1,13.85-13.85H289.36a84.5,84.5,0,0,1,84.5,84.5V297A13.85,13.85,0,0,1,360,310.83Z" transform="translate(0 -90.17)"/><path class="cls-2" d="M799.13,447.43a7.48,7.48,0,0,1-.35,6.68c-5.14,8.17-33.39-.67-45.79-4.94l-.11,0q2.64-10.17,5.3-20.37l.13,0a44,44,0,0,1,5.15,1.79c8.5,3.54,9.86,7.14,15.72,10.35C789,446.32,796.75,442.4,799.13,447.43Z" transform="translate(0 -90.17)"/><path class="cls-3" d="M585.75,372.92q6.3,100.66,12.61,201.33l-6.54-3.35-49.21-25.12c-.09-3.59-.17-7.18-.27-10.77Q539.7,422.74,537,310.42l2.84,1.52L550,298.49l.35.26,57.34,10.52,34,72.73,119,36.83c-.87,3.31-1.72,6.62-2.59,9.93q-2.65,10.19-5.3,20.37c-.32,1.2-.63,2.39-.94,3.59L615.46,421.15Z" transform="translate(0 -90.17)"/><path class="cls-2" d="M649,902.06H556.39c1.83-3.94,10.61-21.65,31.26-29.4,27.93-10.48,52.31,6.78,54.25,8.2h0A50,50,0,0,1,649,902.06Z" transform="translate(0 -90.17)"/><path class="cls-2" d="M617.79,860.37a50.08,50.08,0,0,1,24.11,20.49c-1.94-1.42-26.32-18.68-54.25-8.2-20.65,7.75-29.43,25.46-31.26,29.4H551a50.05,50.05,0,0,1,14.45-30.55A48.93,48.93,0,0,1,601.75,857a48,48,0,0,1,16,3.38Z" transform="translate(0 -90.17)"/><path class="cls-1" d="M458.11,580.81c.25-2.75.49-5.51.73-8.26l49.36-25.21c.11-4.12.23-8.22.35-12.34h33.79c.1,3.59.18,7.18.27,10.77l49.21,25.12-.06.13c.21,2.42.44,4.84.65,7.26l25.38,282.07a48,48,0,0,0-16-3.38,48.93,48.93,0,0,0-36.29,14.53l-.31-.29Q545.73,726.11,526.33,581L491.17,869.22a48.08,48.08,0,0,0-57.71-4.87Q445.79,722.59,458.11,580.81Z" transform="translate(0 -90.17)"/><path class="cls-3" d="M598.36,574.25l-6,4c-.21-2.42-.44-4.84-.65-7.26l.06-.13Z" transform="translate(0 -90.17)"/><path class="cls-1" d="M561.84,219l-33.42-4.12v6.81L490.1,232.52q-1.82-15.06-3.61-30.14l47.57-24.71q-5.1,5.69-10.2,11.37l38.39,3.14q-.19,13.4-.4,26.82Z" transform="translate(0 -90.17)"/><path class="cls-4" d="M561.84,219c1.08,28.2-7.7,51.66-22.71,60.63a27.36,27.36,0,0,1-4.28,2.1c-2.59,1-11.52,4-20.43.51a23.24,23.24,0,0,1-5.49-3.1c-10.08-7.54-14.05-22.36-16.27-30.62a78.51,78.51,0,0,1-2.56-16l38.32-10.83v-6.81Zm-16.17,22.19c0-3.42-1.94-6.19-4.33-6.19s-4.33,2.77-4.33,6.19,1.94,6.19,4.33,6.19S545.67,244.61,545.67,241.19Zm-10.27,29.9c2-2.1,3-4.43,2.53-5.94-1.67-5.6-25-6.27-27.06-.7-.6,1.65.48,4.3,2.68,6.64a14.66,14.66,0,0,0,21.85,0ZM516,241.19c0-3.42-1.94-6.19-4.33-6.19s-4.34,2.77-4.34,6.19,1.95,6.19,4.34,6.19S516,244.61,516,241.19Z" transform="translate(0 -90.17)"/><path class="cls-2" d="M537,310.42l-6.72-3.58-4.36-2.32,13.85-12.69c2-1.81,4-3.64,6-5.45l4.8,11.45c-.16.22-.33.43-.51.66l-10.19,13.45Z" transform="translate(0 -90.17)"/><path class="cls-2" d="M545.75,286.38c-2,1.81-4,3.64-6,5.45l-.37-6.85h0Z" transform="translate(0 -90.17)"/><ellipse class="cls-1" cx="541.34" cy="151.02" rx="4.33" ry="6.19"/><path class="cls-2" d="M537,310.42q2.67,112.29,5.33,224.59H508.55q3.07-112.86,6.18-225.73l-.17-.29,3.51-1.88a16.64,16.64,0,0,0,12.22-.26Z" transform="translate(0 -90.17)"/><path class="cls-5" d="M508.77,283.93l.16-4.79a23.24,23.24,0,0,0,5.49,3.1c8.91,3.48,17.84.5,20.43-.51a27.36,27.36,0,0,0,4.28-2.1l.28,5.35.37,6.85-13.85,12.69,4.36,2.32a16.64,16.64,0,0,1-12.22.26l4.85-2.58-14.37-13.15Z" transform="translate(0 -90.17)"/><path class="cls-6" d="M537.93,265.15c.45,1.51-.54,3.84-2.53,5.94a27.94,27.94,0,0,0-12.55-2.2,27.36,27.36,0,0,0-9.3,2.2c-2.2-2.34-3.28-5-2.68-6.64C512.92,258.88,536.26,259.55,537.93,265.15Z" transform="translate(0 -90.17)"/><path class="cls-7" d="M522.85,268.89a27.94,27.94,0,0,1,12.55,2.2,14.66,14.66,0,0,1-21.85,0A27.36,27.36,0,0,1,522.85,268.89Z" transform="translate(0 -90.17)"/><path class="cls-2" d="M522.92,304.52l-4.85,2.58L514.56,309l-5.56,3-10.29-13h0c-.2-.27-.4-.51-.61-.78q2.32-6,4.64-12.07l5.82,5.31Z" transform="translate(0 -90.17)"/><path class="cls-1" d="M511.71,235c2.39,0,4.33,2.77,4.33,6.19s-1.94,6.19-4.33,6.19-4.34-2.77-4.34-6.19S509.32,235,511.71,235Z" transform="translate(0 -90.17)"/><path class="cls-3" d="M461.1,475.92a29.52,29.52,0,0,1-8.66,10.92,30.8,30.8,0,0,1-22.54,5.93q-30.86-42.7-61.69-85.42l77.11-97.28q26.7-5.56,53.38-11.16h0l10.29,13,5.56-3,.17.29Q511.62,422.13,508.55,535c-.12,4.12-.24,8.22-.35,12.34l-49.36,25.21-6.4,3.26,2.46-48.23c7.67-3.46,15.15-10,17.81-18.93,3.27-11-1.39-23.81-11.48-32.67Zm4.64-108.12-45.33,41.92,39.16,55.49Q462.67,416.52,465.74,367.8Z" transform="translate(0 -90.17)"/><path class="cls-2" d="M502.73,286.06l6-2.13-.22,7.44Z" transform="translate(0 -90.17)"/><path class="cls-2" d="M508,902.06H414.53V900.7c1.84-3.94,10.6-21.65,31.26-29.4,28-10.5,52.4,6.83,54.26,8.21A49.6,49.6,0,0,1,508,902.06Z" transform="translate(0 -90.17)"/><path class="cls-2" d="M433.46,864.35a48.08,48.08,0,0,1,57.71,4.87,50,50,0,0,1,8.88,10.29c-1.86-1.38-26.28-18.71-54.26-8.21-20.66,7.75-29.42,25.46-31.26,29.4v1.36H410A50.19,50.19,0,0,1,433.46,864.35Z" transform="translate(0 -90.17)"/><path class="cls-2" d="M441.66,504.75l-5.77-11.64V493a29.83,29.83,0,0,0,16.56-6.13,29.52,29.52,0,0,0,8.66-10.92l.13.06c10.09,8.86,14.75,21.65,11.48,32.67-2.66,8.9-10.14,15.47-17.81,18.93-7,3.15-14.15,3.7-17.95,1.06-4.52-3.15-5.89-11.18-3.16-16.83A14.86,14.86,0,0,1,441.66,504.75Z" transform="translate(0 -90.17)"/><path class="cls-2" d="M465.74,367.8q-3.09,48.7-6.17,97.41l-39.16-55.49Z" transform="translate(0 -90.17)"/><path class="cls-3" d="M458.84,572.55c-.24,2.75-.48,5.51-.73,8.26l-5.67-5Z" transform="translate(0 -90.17)"/><path class="cls-8" d="M414.53,902.06H410a50.19,50.19,0,0,1,23.44-37.71,48.08,48.08,0,0,1,57.71,4.87A50.4,50.4,0,0,1,508,902.06Z" transform="translate(0 -90.17)"/><path class="cls-8" d="M641.92,880.87a50,50,0,0,1,7,21.19H551a50.05,50.05,0,0,1,14.45-30.55A48.93,48.93,0,0,1,601.75,857a48,48,0,0,1,16,3.38" transform="translate(0 -90.17)"/><path class="cls-8" d="M617.79,860.37a50.08,50.08,0,0,1,24.11,20.49" transform="translate(0 -90.17)"/><path class="cls-8" d="M467.87,365.83c-.72.65-1.42,1.3-2.13,2l-45.33,41.92,39.16,55.49c1.19,1.67,2.36,3.34,3.55,5a30.53,30.53,0,0,1-10.68,16.61,30.8,30.8,0,0,1-22.54,5.93q-30.86-42.7-61.69-85.42l77.11-97.28q26.7-5.56,53.38-11.16" transform="translate(0 -90.17)"/><path class="cls-8" d="M461.23,476c10.09,8.86,14.75,21.65,11.48,32.67-2.66,8.9-10.14,15.47-17.81,18.93-7,3.15-14.15,3.7-17.95,1.06-4.52-3.15-5.89-11.18-3.16-16.83a14.86,14.86,0,0,1,7.87-7.06,22,22,0,0,1,15.27-.3" transform="translate(0 -90.17)"/><line class="cls-8" x1="435.89" y1="402.95" x2="441.66" y2="414.59"/><path class="cls-8" d="M465.74,367.8q-3.09,48.7-6.17,97.41c0,.09,0,.18,0,.27" transform="translate(0 -90.17)"/><path class="cls-8" d="M454.9,527.58l-2.46,48.23,6.4-3.26,49.36-25.21c.11-4.12.23-8.22.35-12.34q3.07-112.86,6.18-225.73" transform="translate(0 -90.17)"/><polyline class="cls-8" points="452.44 485.65 458.11 490.64 458.24 490.75"/><path class="cls-8" d="M585.75,372.92q6.3,100.66,12.61,201.33l-6.54-3.35-49.21-25.12c-.09-3.59-.17-7.18-.27-10.77Q539.7,422.74,537,310.42v-.22" transform="translate(0 -90.17)"/><line class="cls-8" x1="509.15" y1="444.85" x2="542.11" y2="444.85"/><line class="cls-8" x1="598.36" y1="484.08" x2="592.41" y2="488.13"/><path class="cls-8" d="M583,368.39c.92,1.51,1.85,3,2.78,4.52h0l29.71,48.23,136.48,31.57c.31-1.2.62-2.39.94-3.59q2.64-10.17,5.3-20.37c.87-3.31,1.72-6.62,2.59-9.93L641.76,382l-34-72.73-57.34-10.52" transform="translate(0 -90.17)"/><path class="cls-8" d="M753,449.17c12.4,4.27,40.65,13.11,45.79,4.94a7.48,7.48,0,0,0,.35-6.68c-2.38-5-10.13-1.11-20-6.49-5.86-3.21-7.22-6.81-15.72-10.35a44,44,0,0,0-5.15-1.79" transform="translate(0 -90.17)"/><path class="cls-8" d="M498.71,298.91l10.29,13,5.56-3,3.51-1.88,4.85-2.58-14.37-13.15-5.82-5.31q-2.31,6-4.64,12.07c.21.27.41.51.61.78Z" transform="translate(0 -90.17)"/><path class="cls-8" d="M550,298.49l-10.19,13.45L537,310.42l-6.72-3.58-4.36-2.32,13.85-12.69c2-1.81,4-3.64,6-5.45l4.8,11.45C550.39,298.05,550.22,298.26,550,298.49Z" transform="translate(0 -90.17)"/><polyline class="cls-8" points="502.73 195.89 508.77 193.77 508.93 193.72"/><line class="cls-8" x1="545.75" y1="196.21" x2="539.45" y2="194.81"/><path class="cls-8" d="M414.53,900.7c1.84-3.94,10.6-21.65,31.26-29.4,28-10.5,52.4,6.83,54.26,8.21" transform="translate(0 -90.17)"/><path class="cls-8" d="M556.39,902.06c1.83-3.94,10.61-21.65,31.26-29.4,27.93-10.48,52.31,6.78,54.25,8.2h0" transform="translate(0 -90.17)"/><path class="cls-8" d="M518.07,307.1a16.64,16.64,0,0,0,12.22-.26" transform="translate(0 -90.17)"/><path class="cls-3" d="M1066.15,1069.22H790.64a84.5,84.5,0,0,1-84.5-84.5V897.79A13.85,13.85,0,0,1,720,883.94H995.5a84.5,84.5,0,0,1,84.5,84.5v86.93A13.85,13.85,0,0,1,1066.15,1069.22Z" transform="translate(0 -90.17)"/></svg>