<svg id="Layer_1" data-name="Layer 1" xmlns="http://www.w3.org/2000/svg" viewBox="0 0 1080 1080"><defs><style>.cls-1{fill:#ffc077;}.cls-2{fill:#fc5c52;}.cls-3{fill:#407bff;}.cls-4{fill:#fcf0ea;}.cls-5{fill:#99a4ce;}.cls-6{fill:#262254;}.cls-7{fill:#fad4c8;}.cls-8{fill:#7487b7;}.cls-9{fill:#ff5b50;}.cls-10,.cls-11,.cls-16,.cls-17{fill:none;stroke-linecap:round;stroke-linejoin:round;}.cls-10,.cls-11{stroke:#262254;}.cls-11{stroke-width:2px;}.cls-12{fill:#c5cbe2;}.cls-13{fill:#e6eafd;}.cls-14{fill:#3472e0;}.cls-15{fill:#e89c52;}.cls-16{stroke:#ffc077;}.cls-16,.cls-17{stroke-width:4px;}.cls-17{stroke:#fc5c52;}</style></defs><title>mix</title><path class="cls-1" d="M241.79,122.36a7.18,7.18,0,0,0,5.08,12.25h62.3a7.18,7.18,0,0,0,0-14.35h-62.3A7.17,7.17,0,0,0,241.79,122.36Z"/><path class="cls-2" d="M241.79,153a7.18,7.18,0,0,0,5.08,12.25h74.82a7.18,7.18,0,0,0,0-14.35H246.87A7.17,7.17,0,0,0,241.79,153Z"/><path class="cls-3" d="M109.89,132.42v68A13.16,13.16,0,0,0,123,213.59h88.58a13.16,13.16,0,0,0,13.16-13.16v-68a13.16,13.16,0,0,0-13.16-13.16H123A13.16,13.16,0,0,0,109.89,132.42Z"/><path class="cls-1" d="M108.71,631.91l-36,2.33-26,1.68,5,56L81.26,690h0q-.8-5.07-1.56-10.12A26.9,26.9,0,0,1,108,678c-.13,3.69-.26,7.39-.38,11.08l25.68-1.5h0q.17-4.67.35-9.33l-12-1.35,3.78-46.1Z"/><path class="cls-3" d="M282.77,677.34l18.94-1.42-23-188,86-36,88.7-97.58-2.73-2.88-20.81-21.93-2.2-2.32-99,85.71L236.2,425.7h0a88.94,88.94,0,0,1-62.63,3.9h0l-63.85,7.33-48,116q5.49,40.5,11,81l0,.32,36-2.33,3-71,25-67-11.22,136.9-3.78,46.1,12,1.35,50,5.65.65-2.62,4.35-17.38,5.21,17.38.79,2.62Z"/><path class="cls-4" d="M79.71,679.92Q80.47,685,81.27,690c.14,1,.29,1.92.44,2.88a56.27,56.27,0,0,0,25.85-1c0-.94.06-1.87.1-2.81.12-3.69.25-7.39.38-11.08a26.9,26.9,0,0,0-28.33,1.9Z"/><path class="cls-1" d="M116.71,1007.92a72.41,72.41,0,0,0,0,10h83v-5l-40.24-27H121.71A73.67,73.67,0,0,0,116.71,1007.92Z"/><path class="cls-5" d="M133.35,687.6q-5.59,149.14-11.18,298.32h37.3l37.34-196.67q-4.23-41.84-8.47-83.67l16.33,42.27q46,119,92,238.07h30.08q-22-154.29-43.94-308.58l-88.06,6.58-.79-2.62h-9.56l-.65,2.62-50-5.65Q133.52,682.94,133.35,687.6Z"/><path class="cls-6" d="M235,317.83a94.34,94.34,0,0,1,9.77-.76,14.49,14.49,0,0,0,3.26-9.91,14.7,14.7,0,0,0-5.47-10.37,115.64,115.64,0,0,0-20.74-1.57,119.79,119.79,0,0,0-22.44,2.55c-3.41.71-5.73,1.34-9.39,2.34-22.69,6.22-28.09,11.46-30.84,14.6-.5.57-.9,1.1-1.25,1.58-5.28,7.3-6.06,15.39-5,37,.76,14.85,2.32,34.38,5.74,57.39a88,88,0,0,0,19.9,3.29c.91.05,1.84.08,2.79.1,1.58,0,3.13,0,4.63-.05A87.74,87.74,0,0,0,209,410.19q-.52-2.46-1.1-5.28c-1.95-9.65-4.18-22.4-5.86-37.49-2.48-22.23-1.74-27.66.78-32.35C209.1,323.3,224.22,319.25,235,317.83Z"/><path class="cls-1" d="M186,418a68.52,68.52,0,0,1-7.51-1.86l-6.11,13.13,1.17.37h0a88.94,88.94,0,0,0,62.63-3.9c.8-.35,1.55-.71,2.27-1.05l-8.65-13.44a66.73,66.73,0,0,1-7.16,3.32,65.31,65.31,0,0,1-13.31,3.71A66.52,66.52,0,0,1,186,418Z"/><polygon class="cls-1" points="184.36 681.3 193.92 681.3 188.71 663.92 184.36 681.3"/><path class="cls-7" d="M186,414.07V418a66.52,66.52,0,0,0,23.34.28,65.31,65.31,0,0,0,13.31-3.71l-1.8-11.9a63.15,63.15,0,0,1-13,2.29q.57,2.82,1.1,5.28A87.74,87.74,0,0,1,186,414.06Z"/><path class="cls-8" d="M188.34,705.58q4.23,41.83,8.47,83.67l7.86-41.4Z"/><path class="cls-4" d="M202.77,335.07c-2.52,4.69-3.26,10.12-.78,32.35,1.68,15.09,3.91,27.84,5.86,37.49a63.15,63.15,0,0,0,13-2.29,38.72,38.72,0,0,0,10.62-4.77,8.35,8.35,0,0,1-1.94-9.21c1.76-3.76,6.9-5.67,11.47-3.53,1.16-5.49.15-13.06-1.49-28.84-1.62-15.57-3.24-28.7-4.52-38.44C224.22,319.25,209.1,323.3,202.77,335.07Zm15.09,14.78a5.51,5.51,0,1,1,5.51,5.51A5.5,5.5,0,0,1,217.86,349.85Z"/><circle class="cls-6" cx="223.37" cy="349.85" r="5.51"/><path class="cls-9" d="M229.54,388.64a8.35,8.35,0,0,0,1.94,9.21,23.16,23.16,0,0,0,7.47-7.52,16.51,16.51,0,0,0,2.06-5.22C236.44,383,231.3,384.88,229.54,388.64Z"/><path class="cls-1" d="M291.71,1007.92a72.41,72.41,0,0,0,0,10h73v-5l-38-27h-30A73.67,73.67,0,0,0,291.71,1007.92Z"/><path class="cls-4" d="M429.87,329.53l20.81,21.93,13.06-15.24a41,41,0,0,0-1-8,41.74,41.74,0,0,0-6-14l15-17a3.3,3.3,0,0,0-5-4l-36.82,36.27Z"/><path class="cls-10" d="M318.27,985.92H296.63q-46-119-92-238.07l-16.33-42.27"/><path class="cls-10" d="M282.71,676.92l.06.42q22,154.29,43.94,308.58"/><path class="cls-10" d="M150.21,985.92h-28q5.58-149.16,11.18-298.32.17-4.67.35-9.33c0-.12,0-.23,0-.35"/><polyline class="cls-10" points="204.67 747.85 196.81 789.25 159.47 985.92"/><path class="cls-10" d="M72.71,633.92q-5.5-40.5-11-81l48-116,63.85-7.33"/><path class="cls-10" d="M236.2,425.7l92.51-12.78,99-85.71,2.2,2.32,20.81,21.93,2.73,2.88-88.7,97.58-86,36,23,188-18.94,1.42-88.06,6.58-.79-2.62-5.21-17.38-4.35,17.38-.65,2.62-50-5.65-12-1.35,3.78-46.1,11.22-136.9-25,67-3,71h0"/><path class="cls-10" d="M107.66,689.1l25.68-1.5"/><path class="cls-10" d="M125.49,630.82l-16.78,1.09-36,2.33-26,1.68,5,56L81.26,690"/><path class="cls-10" d="M296.71,985.92a73.67,73.67,0,0,0-5,22,72.41,72.41,0,0,0,0,10h73v-5l-38-27h-8.44"/><path class="cls-10" d="M121.71,985.92a73.67,73.67,0,0,0-5,22,72.41,72.41,0,0,0,0,10h83v-5l-40.24-27h-9.26"/><path class="cls-10" d="M450.45,351.73l.23-.27,13.06-15.24a41,41,0,0,0-1-8,41.74,41.74,0,0,0-6-14l15-17a3.3,3.3,0,0,0-5-4l-36.82,36.27"/><path class="cls-10" d="M81.27,690c.14,1,.29,1.92.44,2.88a56.27,56.27,0,0,0,25.85-1c0-.94.06-1.87.1-2.81.12-3.69.25-7.39.38-11.08a26.9,26.9,0,0,0-28.33,1.9Q80.47,685,81.27,690Z"/><path class="cls-10" d="M235,317.68c0,.05,0,.1,0,.15,1.28,9.74,2.9,22.87,4.52,38.44,1.64,15.78,2.65,23.35,1.49,28.84a16.51,16.51,0,0,1-2.06,5.22,23.16,23.16,0,0,1-7.47,7.52,38.72,38.72,0,0,1-10.62,4.77,63.15,63.15,0,0,1-13,2.29h0"/><path class="cls-10" d="M178.59,414a88,88,0,0,1-19.9-3.29c-3.42-23-5-42.54-5.74-57.39-1.11-21.65-.33-29.74,5-37,.35-.48.75-1,1.25-1.58,2.75-3.14,8.15-8.38,30.84-14.6,3.66-1,6-1.63,9.39-2.34a119.79,119.79,0,0,1,22.44-2.55,115.64,115.64,0,0,1,20.74,1.57A14.7,14.7,0,0,1,248,307.16a14.49,14.49,0,0,1-3.26,9.91,94.34,94.34,0,0,0-9.77.76c-10.78,1.42-25.9,5.47-32.23,17.24-2.52,4.69-3.26,10.12-.78,32.35,1.68,15.09,3.91,27.84,5.86,37.49q.57,2.82,1.1,5.28A87.74,87.74,0,0,1,186,414.06c-1.5.06-3,.08-4.63.05C180.43,414.09,179.5,414.06,178.59,414Z"/><circle class="cls-10" cx="223.37" cy="349.85" r="5.51"/><path class="cls-10" d="M241,385.11c-4.57-2.14-9.71-.23-11.47,3.53a8.35,8.35,0,0,0,1.94,9.21"/><path class="cls-10" d="M178.5,416.09l-6.11,13.13,1.17.37h0a88.94,88.94,0,0,0,62.63-3.9c.8-.35,1.55-.71,2.27-1.05l-8.65-13.44a66.73,66.73,0,0,1-7.16,3.32,65.31,65.31,0,0,1-13.31,3.71A66.52,66.52,0,0,1,186,418,68.52,68.52,0,0,1,178.5,416.09Z"/><line class="cls-10" x1="220.86" y1="402.62" x2="222.66" y2="414.52"/><path class="cls-10" d="M186,414.07V418"/><line class="cls-10" x1="193.92" y1="681.3" x2="184.36" y2="681.3"/><path class="cls-10" d="M349.7,252.49h-250a13.28,13.28,0,0,1-13.28-13.27V107.34A13.28,13.28,0,0,1,99.66,94.07H246a13.27,13.27,0,0,0,8.91-3.44l27.66-25c9.52-8.61,24.51,0,21.92,12.52a13.25,13.25,0,0,0,13,16h32.2A13.27,13.27,0,0,1,363,107.34V239.22A13.27,13.27,0,0,1,349.7,252.49Z"/><path class="cls-10" d="M211.62,213.59H123a13.16,13.16,0,0,1-13.15-13.16v-68A13.16,13.16,0,0,1,123,119.26h88.58a13.16,13.16,0,0,1,13.16,13.16v68A13.16,13.16,0,0,1,211.62,213.59Z"/><path class="cls-10" d="M309.17,134.61h-62.3a7.18,7.18,0,1,1,0-14.35h62.3a7.18,7.18,0,0,1,0,14.35Z"/><path class="cls-10" d="M321.69,165.26H246.87a7.18,7.18,0,1,1,0-14.35h74.82a7.18,7.18,0,0,1,0,14.35Z"/><path class="cls-11" d="M231.48,338.71a15.64,15.64,0,0,0-6.91-2,16.63,16.63,0,0,0-11.22,4"/><path class="cls-3" d="M1002.74,134.31v80.13c0,3.05-3.06,5.6-7.19,6.29a13.78,13.78,0,0,1-2.26.19H952.93v-93.1h40.36C998.51,127.82,1002.74,130.73,1002.74,134.31Z"/><path class="cls-2" d="M995.55,252.89v31.77c0,3.58-4.23,6.48-9.45,6.48H952.93V259.38H986.1C991.32,259.38,995.55,256.47,995.55,252.89Z"/><path class="cls-1" d="M995.55,252.5v.39c0,3.58-4.23,6.49-9.45,6.49H952.93V220.92h40.36a13.78,13.78,0,0,0,2.26-.19Z"/><path class="cls-12" d="M989.55,689.3c0,3.05,0,6.09,0,9.14l-36.89,19.93c0-2.59,0-5.19-.08-7.78Z"/><path class="cls-13" d="M989.16,882.19l.39,131.92-140.81.28V848.72q20.1-41,40.21-81.92h64.21q-.25-24.21-.52-48.43l36.89-19.93Q989.35,790.3,989.16,882.19Z"/><path class="cls-12" d="M952.64,718.37q.27,24.23.52,48.43h-5.71V721.18Z"/><path class="cls-12" d="M952.56,710.59c0,2.59.06,5.19.08,7.78l-5.19,2.81v-7.65Z"/><path class="cls-14" d="M947.45,713.53v7.65l-56.13,30.33-4.14-3.28Z"/><path class="cls-14" d="M927.76,616.21q8.72,20.46,17.42,40.91c-2.79,2.43-5.57,4.87-8.36,7.29Z"/><path class="cls-6" d="M834.35,481.84c-3,.82-5.44.92-8-.27-5.74-2.63-8.13-9.73-9.26-15.08a121.48,121.48,0,0,1,90.27-25.42,187.71,187.71,0,0,1,29.47,104.48,34,34,0,0,1-11.21,5.08,34.36,34.36,0,0,1-16.44,0c0-.32,0-.64,0-1a182,182,0,0,0-7.69-54.22c-4.53-14.84-8-19.07-12.13-21.52-10.94-6.52-27.69-1.34-38.35,2C843.41,478.24,838.42,480.71,834.35,481.84Z"/><path class="cls-7" d="M902.14,564.86l14.62,2.88c-18.14,14.9-38.51,18-49.34,9.58-2.18-1.69-5.57-5.11-7.63-11.9l8.83-1.86q.39-3.84.76-7.66c11.5.39,23.85-2.09,31.72-4.08Q901.63,558.34,902.14,564.86Z"/><path class="cls-4" d="M901.1,551.82c-7.87,2-20.22,4.47-31.72,4.08-.9,0-1.8-.08-2.69-.15,2.48-6.3,1.5-13.33-2.63-18-5.44-6.17-15.56-7.43-23.46-2.18-1.41-6.24-2.46-14.87-3.91-26.84-1.33-11-2-20.24-2.34-26.87,4.07-1.13,9.06-3.6,16.62-5.94,10.66-3.3,27.41-8.48,38.35-2,4.1,2.45,7.6,6.68,12.13,21.52a182,182,0,0,1,7.69,54.22h-.41C907.58,550,904.84,550.87,901.1,551.82Zm-23.73-48.23a5.84,5.84,0,1,0-5.84,5.84A5.83,5.83,0,0,0,877.37,503.59Zm-22.29,2.22a5.84,5.84,0,1,0-5.84,5.83A5.83,5.83,0,0,0,855.08,505.81Z"/><path class="cls-4" d="M870.45,727.31l15.37,19.22-.57.46-11,6.55a29.88,29.88,0,0,1-8.81-2.45,29.19,29.19,0,0,1-5.77-3.47l-11.41,3.9a3.17,3.17,0,0,1-2.74-4.65l24.34-19.07Z"/><path class="cls-6" d="M871.53,497.76a5.84,5.84,0,1,1-5.83,5.83A5.83,5.83,0,0,1,871.53,497.76Z"/><path class="cls-9" d="M864.06,537.73c4.13,4.69,5.11,11.72,2.63,18-8.87-.67-17-3.26-21.77-9.39-1.91-2.44-3.23-5.89-4.32-10.81C848.5,530.3,858.62,531.56,864.06,537.73Z"/><path class="cls-6" d="M849.24,500a5.84,5.84,0,1,1-5.83,5.84A5.83,5.83,0,0,1,849.24,500Z"/><path class="cls-1" d="M824.65,690.79l22.19,76h-2.7l-1,2-110.61-.24v0L732,766.8l-22.18-76H824.65Z"/><path class="cls-5" d="M843.16,768.8Q824,807.89,804.78,847l-21.21-5.36c-1,2.31-2.07,4.63-3.11,6.94L724.39,973.7H685.71l17.36-98.82,17.24-98.17h0l1.43-8.17,10.8,0Z"/><path class="cls-3" d="M936.82,664.41c2.79-2.42,5.57-4.86,8.36-7.29q-8.71-20.45-17.42-40.91Zm-66.37,62.9-.61.49L845.5,746.87a3.17,3.17,0,0,0,2.74,4.65l11.41-3.9a29.19,29.19,0,0,0,5.77,3.47,29.88,29.88,0,0,0,8.81,2.45l11-6.55.57-.46ZM693.3,620.05l1.44-3.73L799.8,643.45q8.36-37,16.7-74.07l43.12-4.52c0,.19.11.38.17.56,2.06,6.79,5.45,10.21,7.63,11.9,10.83,8.45,31.2,5.32,49.34-9.58l.73-.6,55.23,5.13q15.46,54.47,30.91,108.92l-14.08,8.11-37,21.29-5.11,2.94-60.27,34.7,4.14,3.28,56.13-30.33V766.8H846.84l-22.19-76H782.88L682.63,647.73l.85-2.2Z"/><path class="cls-8" d="M804.78,847l-.85,1.74H780.81l-.35-.16c1-2.31,2.07-4.63,3.11-6.94Z"/><path class="cls-12" d="M803.93,848.72l.85-1.74Q824,807.91,843.16,768.8l1-2H889q-20.12,41-40.21,81.92v165.67l-44.81.09V848.72Z"/><path class="cls-13" d="M803.93,895.91v118.57l-73.14.15a93.08,93.08,0,0,0-2.95-30.48Z"/><path class="cls-12" d="M803.93,848.72v47.19l-76.09,88.24a96.3,96.3,0,0,0-3.45-10.45l56.07-125.14.35.16Z"/><path class="cls-1" d="M671.54,984q4.68-3.35,9.38-6.66l5.1-3.63h38.37a96.3,96.3,0,0,1,3.45,10.45,93.08,93.08,0,0,1,2.95,30.48H637.41v-6.39Q654.46,996.11,671.54,984Z"/><path class="cls-12" d="M714.74,766.8H732l.51,1.74v0l-10.8,0-1.43,8.17h0l-6.31-.06-4.14,0,4.82-9.81Z"/><path class="cls-8" d="M720.31,776.71l-17.24,98.17q-4.43,12.21-8.86,24.41Q704.11,838,714,776.65Z"/><path class="cls-5" d="M714,776.65Q704.12,838,694.21,899.29l-12.34,34L667.29,973.5c0,.07,0,.13-.07.2h-38.6l29.49-197.56,51.75.47Z"/><path class="cls-12" d="M694.21,899.29q4.44-12.21,8.86-24.41L685.71,973.7H686l-5.1,3.63-.22-.31q.62-21.84,1.22-43.68l0,0Z"/><path class="cls-15" d="M671.54,984q-17.07,12.12-34.13,24.25v6.39H622.59l48.17-34.17A28.36,28.36,0,0,1,671.54,984Z"/><path class="cls-1" d="M667.85,973.7a28.18,28.18,0,0,1,2.09,4.32c.33.84.6,1.66.82,2.44l-48.17,34.17H580.87v-6.39l48.6-34.54h37.75c0-.07,0-.13.07-.2Z"/><path class="cls-4" d="M664.93,625.68a22.26,22.26,0,0,1,.22,9.69l-2.62,1.31-2.89,1.45h0l-1.41.71-8-1.38a21.51,21.51,0,0,1-5.87-18.18l1.39-.5,5.59-2,9.18.1A22.16,22.16,0,0,1,664.93,625.68Z"/><path class="cls-1" d="M668,639.48l-.87,1.17L665.24,639l-2.71-2.35,2.62-1.31a22.09,22.09,0,0,0-4.68-18.49l-9.18-.1-5.59,2-16.44-16.47,13.86-16.44,15.79,15.57-.51,0a3.9,3.9,0,0,0-2.44,3.43,4,4,0,0,0,3.09,3.88l7.19.55h0l1.7,1.61,12.45,11.81Z"/><path class="cls-4" d="M671,611l-1.27-1.49-3.43-.26h0l-7.19-.55a4,4,0,0,1-3.09-3.88,3.9,3.9,0,0,1,2.44-3.43l.51,0,16.06.76L682.68,613a15.17,15.17,0,0,1,2.72.76,17.3,17.3,0,0,1,7.9,6.3l-9.82,25.48-.13,0-15.37-6,12.42-16.77L668,610.9Z"/><path class="cls-3" d="M615.43,85.76V362.12H591.16a32.29,32.29,0,0,1-32.29-32.29V118.06a32.3,32.3,0,0,1,32.29-32.3Z"/><path class="cls-1" d="M560.21,585.09a10,10,0,0,1,10,10L570,694.61a10,10,0,0,1-10,10l-110.41-.24a10,10,0,0,0-6.73,2.58l-20.9,18.84a10,10,0,0,1-16.52-9.48,9.85,9.85,0,0,0,.22-2.07,10,10,0,0,0-10-10l-24.29-.06a10,10,0,0,1-10-10l.21-99.49a10,10,0,0,1,10-10Zm-16,97.32V637.69a3.26,3.26,0,0,0-3.26-3.27h-8.24a3.26,3.26,0,0,0-3.26,3.27v44.72a3.26,3.26,0,0,0,3.26,3.26H541A3.26,3.26,0,0,0,544.21,682.41Zm0-54.61V605.63a3.26,3.26,0,0,0-3.26-3.26h-8.24a3.26,3.26,0,0,0-3.26,3.26V627.8a3.26,3.26,0,0,0,3.26,3.26H541A3.26,3.26,0,0,0,544.21,627.8Zm-28.44,54.61V637.93a3.26,3.26,0,0,0-3.26-3.26h-8.24a3.26,3.26,0,0,0-3.26,3.26v44.48a3.26,3.26,0,0,0,3.26,3.26h8.24A3.26,3.26,0,0,0,515.77,682.41Zm0-54.35V612.12a3.26,3.26,0,0,0-3.26-3.26h-8.24a3.26,3.26,0,0,0-3.26,3.26v15.94a3.26,3.26,0,0,0,3.26,3.26h8.24A3.26,3.26,0,0,0,515.77,628.06Zm-28.44,54.35v-36a3.26,3.26,0,0,0-3.26-3.26h-8.24a3.26,3.26,0,0,0-3.26,3.26v36a3.26,3.26,0,0,0,3.26,3.26h8.24A3.26,3.26,0,0,0,487.33,682.41Zm0-45.91v-8.24a3.26,3.26,0,0,0-3.26-3.26h-8.24a3.26,3.26,0,0,0-3.26,3.26v8.24a3.26,3.26,0,0,0,3.26,3.26h8.24A3.26,3.26,0,0,0,487.33,636.5ZM459,682.41v-36a3.26,3.26,0,0,0-3.26-3.26h-8.24a3.26,3.26,0,0,0-3.26,3.26v36a3.26,3.26,0,0,0,3.26,3.26h8.24A3.26,3.26,0,0,0,459,682.41Zm0-45.91V619a3.26,3.26,0,0,0-3.26-3.26h-8.24a3.26,3.26,0,0,0-3.26,3.26V636.5a3.26,3.26,0,0,0,3.26,3.26h8.24A3.26,3.26,0,0,0,459,636.5Zm-28.51,45.91V653.5a3.26,3.26,0,0,0-3.26-3.26H419a3.26,3.26,0,0,0-3.26,3.26v28.91a3.26,3.26,0,0,0,3.26,3.26h8.24A3.26,3.26,0,0,0,430.52,682.41Zm0-38.78v-16.5a3.26,3.26,0,0,0-3.26-3.26H419a3.26,3.26,0,0,0-3.26,3.26v16.5A3.26,3.26,0,0,0,419,646.9h8.24A3.26,3.26,0,0,0,430.52,643.63Zm-28.44,38.78V653.5a3.26,3.26,0,0,0-3.26-3.26h-8.24a3.26,3.26,0,0,0-3.26,3.26v28.91a3.26,3.26,0,0,0,3.26,3.26h8.24A3.26,3.26,0,0,0,402.08,682.41Zm0-38.78V634a3.26,3.26,0,0,0-3.26-3.26h-8.24a3.26,3.26,0,0,0-3.26,3.26v9.61a3.26,3.26,0,0,0,3.26,3.27h8.24A3.26,3.26,0,0,0,402.08,643.63Z"/><path class="cls-2" d="M544.21,637.69v44.72a3.26,3.26,0,0,1-3.26,3.26h-8.24a3.26,3.26,0,0,1-3.26-3.26V637.69a3.26,3.26,0,0,1,3.26-3.27H541A3.26,3.26,0,0,1,544.21,637.69Z"/><rect class="cls-3" x="529.45" y="602.37" width="14.76" height="28.69" rx="3.26"/><rect class="cls-2" x="501.01" y="634.67" width="14.76" height="51" rx="3.26"/><rect class="cls-3" x="501.01" y="608.86" width="14.76" height="22.46" rx="3.26"/><rect class="cls-2" x="472.57" y="643.11" width="14.76" height="42.56" rx="3.26"/><rect class="cls-3" x="472.57" y="625" width="14.76" height="14.76" rx="3.26"/><rect class="cls-2" x="444.27" y="643.11" width="14.76" height="42.56" rx="3.26"/><rect class="cls-3" x="444.27" y="615.75" width="14.76" height="24.01" rx="3.26"/><rect class="cls-2" x="415.76" y="650.24" width="14.76" height="35.43" rx="3.26"/><path class="cls-3" d="M430.52,627.13v16.5a3.26,3.26,0,0,1-3.26,3.27H419a3.26,3.26,0,0,1-3.26-3.27v-16.5a3.26,3.26,0,0,1,3.26-3.26h8.24A3.26,3.26,0,0,1,430.52,627.13Z"/><rect class="cls-2" x="387.32" y="650.24" width="14.76" height="35.43" rx="3.26"/><path class="cls-3" d="M402.08,634v9.61a3.26,3.26,0,0,1-3.26,3.27h-8.24a3.26,3.26,0,0,1-3.26-3.27V634a3.26,3.26,0,0,1,3.26-3.26h8.24A3.26,3.26,0,0,1,402.08,634Z"/><path class="cls-10" d="M696.81,973.7h27.58l56.07-125.14c1-2.31,2.07-4.63,3.11-6.94L804.78,847"/><path class="cls-10" d="M720.31,776.71l-17.24,98.17L685.71,973.7H686"/><path class="cls-10" d="M843.16,768.8l-110.61-.24-10.8,0-1.43,8.17"/><path class="cls-10" d="M640.26,973.7h27c0-.07,0-.13.07-.2l14.58-40.18,12.34-34q4.44-12.21,8.86-24.41"/><path class="cls-10" d="M720.32,776.71h0l-6.31-.06-4.14,0-51.75-.47L628.62,973.7h.85"/><path class="cls-10" d="M637.41,1014.63H580.87v-6.39l48.6-34.54h10.79"/><path class="cls-10" d="M667.85,973.7a28.18,28.18,0,0,1,2.09,4.32c.33.84.6,1.66.82,2.44a28.36,28.36,0,0,1,.78,3.53l0,.16"/><path class="cls-10" d="M724.39,973.7a96.3,96.3,0,0,1,3.45,10.45,93.08,93.08,0,0,1,2.95,30.48H637.41v-6.39q17.05-12.13,34.13-24.25,4.68-3.35,9.38-6.66l5.1-3.63h10.79"/><path class="cls-10" d="M730.79,1014.63l73.14-.15,44.81-.09,140.81-.28-.39-131.92q.18-91.87.37-183.75c0-3.05,0-6.09,0-9.14"/><path class="cls-10" d="M844.14,766.8h109"/><path class="cls-10" d="M889,766.8q-20.12,41-40.21,81.92v165.91"/><path class="cls-10" d="M844.14,766.8l-1,2Q824,807.89,804.78,847l-.85,1.74H780.81"/><polyline class="cls-10" points="732.55 768.54 732.04 766.8 709.86 690.79 782.88 690.79 822.2 690.79 824.65 690.79"/><path class="cls-10" d="M846.84,766.8l-22.19-76"/><path class="cls-10" d="M732,766.8h-17.3"/><path class="cls-10" d="M714.68,766.8l-4.82,9.81"/><path class="cls-10" d="M681.92,933.34q-.61,21.84-1.22,43.68"/><polyline class="cls-10" points="803.93 848.72 803.93 895.91 803.93 1014.48 803.93 1014.63"/><path class="cls-10" d="M782.88,690.79,682.63,647.73l.85-2.2,9.82-25.48,1.44-3.73L799.8,643.45q8.36-37,16.7-74.07l43.12-4.52c0,.19.11.38.17.56,2.06,6.79,5.45,10.21,7.63,11.9,10.83,8.45,31.2,5.32,49.34-9.58l.73-.6,55.23,5.13q15.46,54.47,30.91,108.92l-14.08,8.11-37,21.29-5.11,2.94-60.27,34.7-1.36-1.7-15.37-19.22-2.34-2.92,68.71-60c2.79-2.42,5.57-4.86,8.36-7.29q-8.71-20.45-17.42-40.91l-1.21-2.85"/><path class="cls-10" d="M953.16,766.8q-.25-24.21-.52-48.43c0-2.59,0-5.19-.08-7.78"/><path class="cls-10" d="M822.2,690.79q4.74-42.82,9.47-85.64"/><polyline class="cls-10" points="947.45 713.53 947.45 721.18 947.45 766.8"/><path class="cls-10" d="M693.44,620.25l-.14-.2a17.3,17.3,0,0,0-7.9-6.3,15.17,15.17,0,0,0-2.72-.76"/><path class="cls-10" d="M666.25,609.29l3.43.26L671,611l1.73,2"/><path class="cls-10" d="M682.68,613,675,602.2l-16.06-.76-.51,0a3.9,3.9,0,0,0-2.44,3.43,4,4,0,0,0,3.09,3.88l7.19.55"/><path class="cls-10" d="M659.63,638.13l-1.41.71-8-1.38a21.51,21.51,0,0,1-5.87-18.18l1.39-.5,5.59-2,9.18.1a22.09,22.09,0,0,1,4.68,18.49l-2.62,1.31-2.89,1.45"/><path class="cls-10" d="M658.92,601.45h0l-15.79-15.57-13.86,16.44,16.44,16.47"/><path class="cls-10" d="M662.53,636.68l2.71,2.35,1.87,1.62.87-1.17,12.42-16.77L668,610.9l-1.7-1.61h0"/><line class="cls-10" x1="683.35" y1="645.48" x2="667.98" y2="639.48"/><path class="cls-10" d="M665.3,639h-.06l-5.6-.9h0"/><line class="cls-10" x1="670.95" y1="611.04" x2="667.95" y2="610.9"/><path class="cls-10" d="M869.84,727.8,845.5,746.87a3.17,3.17,0,0,0,2.74,4.65l11.41-3.9a29.19,29.19,0,0,0,5.77,3.47,29.88,29.88,0,0,0,8.81,2.45l11-6.55"/><path class="cls-10" d="M834.34,481.57c0,.09,0,.18,0,.27.36,6.63,1,15.88,2.34,26.87,1.45,12,2.5,20.6,3.91,26.84,1.09,4.92,2.41,8.37,4.32,10.81,4.8,6.13,12.9,8.72,21.77,9.39.89.07,1.79.12,2.69.15,11.5.39,23.85-2.09,31.72-4.08,3.74-1,6.48-1.78,7.63-2.14"/><path class="cls-10" d="M909.14,549.68c0,.31,0,.63,0,1a34.36,34.36,0,0,0,16.44,0,34,34,0,0,0,11.21-5.08,187.71,187.71,0,0,0-29.47-104.48,121.48,121.48,0,0,0-90.27,25.42c1.13,5.35,3.52,12.45,9.26,15.08,2.6,1.19,5.07,1.09,8,.27,4.07-1.13,9.06-3.6,16.62-5.94,10.66-3.3,27.41-8.48,38.35-2,4.1,2.45,7.6,6.68,12.13,21.52A182,182,0,0,1,909.14,549.68Z"/><path class="cls-11" d="M863.36,494.16a17.12,17.12,0,0,1,16.83-.79"/><path class="cls-11" d="M839.54,495.9a17.07,17.07,0,0,1,16.82-.78"/><path class="cls-10" d="M855.08,505.81a5.84,5.84,0,1,1-5.84-5.84A5.83,5.83,0,0,1,855.08,505.81Z"/><path class="cls-10" d="M877.37,503.59a5.84,5.84,0,1,1-5.84-5.83A5.83,5.83,0,0,1,877.37,503.59Z"/><path class="cls-10" d="M840.59,535.55h0c7.9-5.25,18-4,23.46,2.18,4.13,4.69,5.11,11.72,2.63,18"/><path class="cls-10" d="M901.1,551.81h0q.52,6.52,1,13l14.62,2.88"/><path class="cls-10" d="M869.38,555.9q-.37,3.83-.76,7.66l-8.83,1.86"/><path class="cls-10" d="M952.93,291.14v38.69a32.3,32.3,0,0,1-32.3,32.29H591.16a32.29,32.29,0,0,1-32.29-32.29V118.06a32.3,32.3,0,0,1,32.29-32.3H920.63a32.3,32.3,0,0,1,32.3,32.3V291.14Z"/><path class="cls-10" d="M952.93,127.82h40.36c5.22,0,9.45,2.91,9.45,6.49v80.13c0,3.05-3.06,5.6-7.19,6.29a13.78,13.78,0,0,1-2.26.19H952.93"/><path class="cls-10" d="M995.55,252.89c0,3.58-4.23,6.49-9.45,6.49H952.93"/><path class="cls-10" d="M995.55,220.73V252.5"/><path class="cls-10" d="M995.55,252.5v32.16c0,3.58-4.23,6.48-9.45,6.48H952.93"/><line class="cls-10" x1="615.43" y1="85.76" x2="615.43" y2="362.12"/><path class="cls-10" d="M371.58,584.68l188.63.41a10,10,0,0,1,10,10L570,694.61a10,10,0,0,1-10,10l-110.41-.24a10,10,0,0,0-6.73,2.58l-20.9,18.84a10,10,0,0,1-16.52-9.48,9.85,9.85,0,0,0,.22-2.07,10,10,0,0,0-10-10l-24.29-.06a10,10,0,0,1-10-10l.21-99.49A10,10,0,0,1,371.58,584.68Z"/><rect class="cls-10" x="387.32" y="650.24" width="14.76" height="35.43" rx="3.26"/><path class="cls-10" d="M398.82,646.9h-8.24a3.26,3.26,0,0,1-3.26-3.27V634a3.26,3.26,0,0,1,3.26-3.26h8.24a3.26,3.26,0,0,1,3.26,3.26v9.61A3.26,3.26,0,0,1,398.82,646.9Z"/><rect class="cls-10" x="415.76" y="650.24" width="14.76" height="35.43" rx="3.26"/><path class="cls-10" d="M427.26,646.9H419a3.26,3.26,0,0,1-3.26-3.27v-16.5a3.26,3.26,0,0,1,3.26-3.26h8.24a3.26,3.26,0,0,1,3.26,3.26v16.5A3.26,3.26,0,0,1,427.26,646.9Z"/><rect class="cls-10" x="444.27" y="643.11" width="14.76" height="42.56" rx="3.26"/><rect class="cls-10" x="444.27" y="615.75" width="14.76" height="24.01" rx="3.26"/><rect class="cls-10" x="472.57" y="643.11" width="14.76" height="42.56" rx="3.26"/><rect class="cls-10" x="472.57" y="625" width="14.76" height="14.76" rx="3.26"/><rect class="cls-10" x="501.01" y="634.67" width="14.76" height="51" rx="3.26"/><rect class="cls-10" x="501.01" y="608.86" width="14.76" height="22.46" rx="3.26"/><path class="cls-10" d="M541,685.67h-8.24a3.26,3.26,0,0,1-3.26-3.26V637.69a3.26,3.26,0,0,1,3.26-3.27H541a3.26,3.26,0,0,1,3.26,3.27v44.72A3.26,3.26,0,0,1,541,685.67Z"/><rect class="cls-10" x="529.45" y="602.37" width="14.76" height="28.69" rx="3.26"/><polyline class="cls-16" points="646.68 243.59 682.76 243.59 717.76 201.04 753.84 201.04 794.23 182.2 831.08 182.2 867.31 133.73 903.39 133.73"/><polyline class="cls-17" points="662.17 317.83 696.47 317.83 729.74 276.79 764.03 276.79 802.42 227.77 836.72 227.77 871.89 200.92 906.18 200.92"/></svg>